<?xml version="1.0" encoding="utf-8"?>
<!-- Generator: Adobe Illustrator 23.0.3, SVG Export Plug-In . SVG Version: 6.00 Build 0)  -->
<svg version="1.1" xmlns="http://www.w3.org/2000/svg" xmlns:xlink="http://www.w3.org/1999/xlink" x="0px" y="0px"
	 viewBox="0 0 1104.8 180" style="enable-background:new 0 0 1104.8 180;" xml:space="preserve">
<style type="text/css">
	.st0{fill:#0084CC;}
	.st1{fill:#FFFFFF;}
	.st2{fill:#8C734B;}
	.st3{fill:url(#SVGID_1_);}
	.st4{fill:#8C8C8A;}
	.st5{fill:url(#SVGID_2_);}
	.st6{fill:#9B2541;}
	.st7{clip-path:url(#SVGID_4_);}
	.st8{fill:url(#SVGID_5_);}
	.st9{fill:url(#SVGID_6_);}
</style>
<g id="Layer_2">
</g>
<g id="Layer_1">
	<g>
		<g>
			<g>
				<rect x="210.4" y="2.3" class="st0" width="5" height="174.9"/>
				<path class="st0" d="M254.8,134.9V44h66.7v20.4h-43.2v14.2h42.3v20.4h-42.3v15.4h43.2v20.4H254.8z"/>
				<path class="st0" d="M333.7,99V44h23.9v54.1c0,10.8,6.5,18.5,19.2,18.5c12.5,0,19.1-7.8,19.1-18.5V44h23.7v54.8
					c0,22.6-13.6,38.6-42.8,38.6C347.6,137.4,333.7,121.4,333.7,99z"/>
				<path class="st0" d="M482.6,134.9l-15.3-30.5h-12v30.5h-23.4V44h45.5c20.2,0,31.6,13.4,31.6,30.3c0,15.8-9.5,24.3-18.1,27.3
					l18.5,33.4H482.6z M485.1,74.1c0-6.3-5-9.7-11.3-9.7h-18.5v19.5h18.5C480.1,83.9,485.1,80.5,485.1,74.1z"/>
				<path class="st0" d="M752.9,44l-34.2,91h26.6l4.5-13.1h35.9l4.5,13.1h26.6l-34.2-91H752.9z M756.2,101.5l11.6-34.2l11.5,34.2
					H756.2z"/>
				<polygon class="st0" points="879.1,94.3 860,44 827.4,44 827.4,135 850.9,135 850.9,74.9 873.9,135 884.3,135 907.2,74.9 
					907.2,135 930.7,135 930.7,44 898.1,44 				"/>
				<polygon class="st0" points="944.1,135 1010.8,135 1010.8,114.6 967.6,114.6 967.6,99.2 1009.9,99.2 1009.9,78.7 967.6,78.7 
					967.6,64.5 1010.8,64.5 1010.8,44 944.1,44 				"/>
				<path class="st0" d="M1083.5,101.6c8.6-3,18.1-11.5,18.1-27.3c0-16.9-11.5-30.3-31.7-30.3h-45.6v91h23.5v-30.6h12l15.3,30.6
					h26.9L1083.5,101.6z M1066.5,84h-18.6V64.5h18.6c6.3,0,11.3,3.4,11.3,9.7C1077.8,80.6,1072.7,84,1066.5,84z"/>
				<path class="st0" d="M719.5,84.3h-51.1v20.2h24.3c-3.8,7.4-10.1,11.2-19,11.2c-15.9,0-27.1-10.9-27.1-26.6
					c0-14.5,10.8-25.6,25-25.6c8.2,0,15,3.5,19.9,10.4l19.9-10.3c-8.1-13.5-22.3-21.2-39.8-21.2c-26.7,0-48.1,21-48.1,47.3
					c0,26.6,21.4,47.6,48.2,47.6c27.3,0,47.8-21.2,47.8-49.7V84.3z"/>
				<path class="st0" d="M564.8,137.3c-26.7,0-47.9-20.4-47.9-47.2c0-27.1,20.9-47.6,47.9-47.6c26.8,0,48.4,20.4,48.4,47.4
					S591.5,137.3,564.8,137.3z M565.1,63c-14.9,0-24.9,12.3-24.9,26.7c0,14.6,10,27.1,25.2,27.1c14.6,0,24.6-12.6,24.6-26.7
					C590,75.7,580.1,63,565.1,63z"/>
			</g>
		</g>
		<g>
			<polygon class="st0" points="51.3,55.4 52.6,56.7 55.9,57.4 55.2,60.3 56.5,64.2 53,64.8 51.2,74 56,74.7 50,82.1 50.8,82.6 
				64.3,78.2 72,77.9 73.3,75.5 70.4,73.9 73.7,70.2 72.7,67 68.9,65.3 68.3,61.2 62.1,51.2 55.9,48.4 60.2,47 61.6,40.1 55.1,40.5 
				57.8,36.2 57.4,34.5 54.1,35.2 51.7,35.4 46.1,47 52,52.7 			"/>
			<polygon class="st0" points="45.8,73.1 46.8,68.8 45.8,64.5 48.3,61 46.5,56.7 40.9,56.7 38.4,59.4 38.4,62.5 34.8,62 34.7,63.4 
				35.6,64.2 34.1,66.4 36.7,67.5 36,69.6 37.2,71.3 34.1,72.1 34.1,77 38.4,77 			"/>
			<polygon class="st0" points="93.4,131 95.1,134.3 96.6,132.6 96,127.7 			"/>
			<polygon class="st0" points="93,137.9 92.1,137.4 91,137.8 92.1,140.4 92.1,143.6 93.7,145.3 95.3,143.1 95.6,136.7 94.5,136.7 
							"/>
			<polygon class="st0" points="110.5,150.2 105,149.2 104.3,149.4 108.2,153.6 112.8,155.1 113.5,153.9 112.6,152.8 113.5,149.7 
							"/>
			<polygon class="st0" points="136.4,139.5 134.1,141.5 136.6,144.9 138.5,145.2 139.7,148.1 140.9,148.7 142,143.7 140.7,141.5 
							"/>
			<path class="st0" d="M93.3,0.3C44,0.3,3.8,40.4,3.8,89.8c0,49.3,40.1,89.5,89.5,89.5s89.5-40.1,89.5-89.5
				C182.7,40.4,142.6,0.3,93.3,0.3z M93.3,171.6c-45.1,0-81.9-36.7-81.9-81.9c0-45.1,36.7-81.9,81.9-81.9c4.8,0,9.5,0.4,14.1,1.2
				L100,30.6l-10.9,2l-3.5,8.7v10.8l7.1,2.9l8-9.7l6.9,13.7l2.5,4.9h2.5v-4.9l5.5-6.1l3.5-2l1-8.1l-7.4-2.9l3.1-6.9l11.3-7l-1.5-3.5
				l5.7-4c3.7,2.1,7.2,4.5,10.5,7.1l-5.8,1.1l-5.1,6.6l5.6,6.9l11.7-3.6l0,6.9l-5.7,3.8l-11.9,2.2l3.5,8.7l-6.6-1.8l-2.9,5.1
				l-2.6,9.4l-3.6-1.8l-11.5,5.1l-3.3-2l-4.4,1.2l-3.5-8.7L101,62l-2.7-1.9l-4.3,2.8l1.8,10.7l-9.4,3.7l-3.6,7.2l-5,2.7l-0.4,3.5
				l-6.2,2.6l-3.5-1.6l0.7,4.1l-8.3,0.6v2.2L68,102l0.2,2.6l1,0l-8.8,7l-19.7-0.4l-4.7,2.9l3.8,8.3l-3.8,11.4l1.9,1.8l1.5-1.1
				l-0.9,6.9l13,6.1l3.7,4l9.1-2.9l1.3,3.5l3-3.9l1.8-0.2l2.8-11l-1.7-3.7l4.2-4.1v-2.2l2.3,0.1l3.7-2.7l-0.5-0.6l2.6-1.6l2.7,0.6
				l2,1.6l2.2-4.1l6.2-4.5l0.6,1.9l0.9,1.7l6.7,8.3l6.1,4.3l2.1,2.8l2,7.1l-1.9,2.9l0.7,0.7l3.6-3.3l1.4-4.8l-2.7-4.2l0.5-0.7l2.2,0
				l2.9,1.5l1-0.9l-5-3.7l-3-1.2l-1.4-1.2l-1.4-1.9l-3.1-4.9l-2.3-2.8l-0.2-2.3l-0.9-6.1l3.9-2.4l3.6-0.6l1.4,1.1l1-0.8l1.4,2.8
				l3.8,1.7l1.4-0.4l7.1,9.1l-0.5,5.2l3.8,8l4.7,0.4l2.6,1.3l-1.6-3.6l-1.6-1.4l-0.1-4.1l2.7,0.9l0.6-1.7l5.3-0.1l2.1,0.9l3.1-2
				l2.3,0.1l-2.1-2.2l-0.4-4.5l2.5-5.6l-3.6-2.6l4.1-4.2l3.8-0.6l10.7-0.5l6.5-1.7C168.4,141.3,134.3,171.6,93.3,171.6z"/>
		</g>
	</g>
</g>
<g id="Layer_3">
</g>
</svg>
