<svg xmlns="http://www.w3.org/2000/svg" version="1.1" xmlns:xlink="http://www.w3.org/1999/xlink" width="500" height="500"><svg xmlns="http://www.w3.org/2000/svg" version="1.1" xmlns:xlink="http://www.w3.org/1999/xlink" width="500" height="500"><svg version="1.1" id="Layer_1" xmlns="http://www.w3.org/2000/svg" xmlns:xlink="http://www.w3.org/1999/xlink" x="0px" y="0px" viewBox="0 0 500 500" style="enable-background:new 0 0 500 500;" xml:space="preserve">
<style type="text/css">
	.st0{fill:url(#SVGID_1_);}
</style>
<linearGradient id="SVGID_1_" gradientUnits="userSpaceOnUse" x1="109.2487" y1="-181.7391" x2="509.372" y2="312.2436" gradientTransform="matrix(1 0 0 -1 -56 356)">
	<stop offset="0" style="stop-color:#FE4968"></stop>
	<stop offset="1" style="stop-color:#FF9B90"></stop>
</linearGradient>
<path class="st0" d="M72.2,384.7L9.5,447.4c-4.1,4.2-6.4,9.9-6.3,15.8c0.1,5.9,2.4,11.5,6.6,15.7c4.2,4.2,9.8,6.5,15.7,6.6
	c5.9,0.1,11.6-2.2,15.8-6.3l62.7-62.7l62.7,62.7c4.2,4.1,9.9,6.4,15.8,6.3c5.9-0.1,11.5-2.4,15.7-6.6c4.2-4.2,6.5-9.8,6.6-15.7
	c0.1-5.9-2.2-11.6-6.3-15.8l-62.7-62.7l62.7-62.7c4.1-4.2,6.4-9.9,6.3-15.8c-0.1-5.9-2.4-11.5-6.6-15.7c-4.2-4.2-9.8-6.5-15.7-6.6
	c-5.9-0.1-11.6,2.2-15.8,6.3L104,353l-62.7-62.7c-4.2-4.1-9.9-6.4-15.8-6.3c-5.9,0.1-11.5,2.4-15.7,6.6c-4.2,4.2-6.5,9.8-6.6,15.7
	c-0.1,5.9,2.2,11.6,6.3,15.8L72.2,384.7z M384.7,227.5c-62,0-112.3-50.3-112.3-112.3C272.4,53.3,322.7,3,384.7,3
	C446.7,3,497,53.3,497,115.3C497,177.3,446.7,227.5,384.7,227.5z M384.7,182.6c17.9,0,35-7.1,47.6-19.7
	c12.6-12.6,19.7-29.8,19.7-47.6s-7.1-35-19.7-47.6c-12.6-12.6-29.8-19.7-47.6-19.7c-17.9,0-35,7.1-47.6,19.7
	c-12.6,12.6-19.7,29.8-19.7,47.6s7.1,35,19.7,47.6C349.7,175.5,366.8,182.6,384.7,182.6z M272.4,328.7c0-31.1,25.1-56.2,56.3-56.2
	h112.1c31.1,0,56.3,25.1,56.3,56.2v112c0,31.1-25.1,56.2-56.3,56.2H328.7c-7.4,0-14.7-1.4-21.5-4.3c-6.8-2.8-13-7-18.3-12.2
	c-5.2-5.2-9.4-11.4-12.2-18.3c-2.8-6.8-4.3-14.1-4.3-21.5V328.7z M317.3,328.7v112c0,6.3,5,11.3,11.3,11.3h112.1
	c6.3,0,11.3-5,11.3-11.3v-112c0-6.3-5-11.3-11.3-11.3H328.7C322.3,317.4,317.3,322.4,317.3,328.7z M77.2,38.4c19-32.2,57-32.2,76,0
	l66.4,112.4c18.8,31.9,1.9,65.5-35.2,65.5H45.9c-37.2,0-54-33.6-35.2-65.5L77.2,38.4L77.2,38.4z M50.8,171.4h128.9L115.2,62.3
	L50.8,171.4z"></path>
</svg></svg><style>@media (prefers-color-scheme: light) { :root { filter: none; } }
@media (prefers-color-scheme: dark) { :root { filter: none; } }
</style></svg>