<?xml version="1.0" encoding="utf-8"?>
<!-- Generator: Adobe Illustrator 23.0.1, SVG Export Plug-In . SVG Version: 6.00 Build 0)  -->
<svg version="1.1" id="Layer_1" xmlns="http://www.w3.org/2000/svg" xmlns:xlink="http://www.w3.org/1999/xlink" x="0px" y="0px"
	 viewBox="0 0 60 60" style="enable-background:new 0 0 60 60;" xml:space="preserve">
<style type="text/css">
	.st0{clip-path:url(#SVGID_2_);}
	.st1{fill:#231F20;}
	.st2{fill:#ED145B;}
</style>
<g>
	<defs>
		<rect id="SVGID_1_" x="2" y="2" width="56" height="56"/>
	</defs>
	<clipPath id="SVGID_2_">
		<use xlink:href="#SVGID_1_"  style="overflow:visible;"/>
	</clipPath>
	<g class="st0">
		<path class="st1" d="M26.2,3.6L21,2.3c-1.1-0.3-2.2-0.4-3.4-0.2c-1.1,0.2-2.2,0.5-3.2,1.1c-1,0.6-1.8,1.3-2.5,2.2
			c-0.7,0.9-1.2,1.9-1.5,3l-1.3,4.9C13.4,8,19.5,4.6,26.2,3.6z"/>
		<path class="st1" d="M3.6,34.2L2.3,39c-0.6,2.2-0.3,4.6,0.9,6.6c1.2,2,3.1,3.4,5.3,4l4.9,1.3C8.1,46.8,4.6,40.8,3.6,34.2z"/>
		<path class="st1" d="M51.6,10.4L46,8.9c2.8,2.1,5.1,4.8,6.9,7.9c1.7,3.1,2.9,6.4,3.3,9.9l1.5-5.7c0.6-2.2,0.3-4.6-0.9-6.6
			C55.7,12.4,53.8,11,51.6,10.4z"/>
		<path class="st1" d="M33.7,56.3l5.3,1.4c2.2,0.6,4.6,0.3,6.6-0.9c2-1.2,3.4-3.1,4-5.3l1.5-5.6C46.9,51.6,40.6,55.3,33.7,56.3z"/>
		<path class="st2" d="M30,5.7c-4.8,0-9.5,1.4-13.5,4.1c-4,2.7-7.1,6.5-8.9,10.9s-2.3,9.3-1.4,14s3.2,9,6.6,12.4
			c3.4,3.4,7.7,5.7,12.4,6.6c4.7,0.9,9.6,0.5,14-1.4c4.4-1.8,8.2-5,10.9-8.9c2.7-4,4.1-8.7,4.1-13.5c0-6.4-2.6-12.6-7.1-17.2
			C42.6,8.3,36.4,5.7,30,5.7z M16.3,17.8c0.3-1.3,0.9-2.6,1.9-3.6c1-1,2.2-1.6,3.5-1.9c1.3-0.3,2.7-0.1,4,0.4s2.4,1.4,3.1,2.5
			c0.8,1.1,1.2,2.5,1.2,3.8c0,1.4-0.4,2.7-1.1,3.9c-0.8,1.1-1.8,2-3.1,2.6c-1.3,0.5-2.7,0.7-4,0.4c-0.9-0.2-1.7-0.5-2.5-1
			c-0.8-0.5-1.4-1.1-1.9-1.9c-0.5-0.8-0.9-1.6-1.1-2.5C16.1,19.6,16.1,18.7,16.3,17.8z M26.3,38.8c-0.3,1.3-0.9,2.6-1.9,3.6
			c-1,1-2.2,1.6-3.5,1.9c-1.3,0.3-2.7,0.1-4-0.4c-1.3-0.5-2.4-1.4-3.1-2.5c-0.8-1.1-1.2-2.5-1.2-3.8s0.4-2.7,1.1-3.9
			c0.8-1.1,1.8-2,3.1-2.6c1.3-0.5,2.7-0.7,4-0.4c0.9,0.2,1.7,0.5,2.5,1c0.8,0.5,1.4,1.1,1.9,1.9c0.5,0.8,0.9,1.6,1,2.5
			C26.5,37,26.5,37.9,26.3,38.8z M29.3,33.2c-0.6-0.1-1.1-0.4-1.6-0.8c-0.4-0.4-0.7-1-0.9-1.6c-0.1-0.6-0.1-1.2,0.2-1.8
			c0.2-0.6,0.6-1,1.1-1.4c0.5-0.3,1.1-0.5,1.7-0.5c0.6,0,1.2,0.2,1.7,0.5c0.5,0.3,0.9,0.8,1.1,1.4c0.2,0.6,0.3,1.2,0.2,1.8
			c-0.1,0.4-0.2,0.8-0.5,1.1c-0.2,0.3-0.5,0.6-0.8,0.9c-0.3,0.2-0.7,0.4-1.1,0.5C30.1,33.3,29.7,33.3,29.3,33.2z M43.7,42.2
			c-0.3,1.3-0.9,2.6-1.9,3.6c-1,1-2.2,1.6-3.5,1.9c-1.3,0.3-2.7,0.1-4-0.4c-1.3-0.5-2.4-1.4-3.1-2.5c-0.8-1.1-1.2-2.5-1.2-3.8
			c0-1.4,0.4-2.7,1.1-3.9c0.8-1.1,1.8-2,3.1-2.6c1.3-0.5,2.7-0.7,4-0.4c0.9,0.2,1.7,0.5,2.5,1c0.8,0.5,1.4,1.1,1.9,1.9
			c0.5,0.8,0.9,1.6,1.1,2.5C43.9,40.3,43.9,41.3,43.7,42.2z M39.2,29.3c-1.3-0.3-2.6-0.9-3.6-1.9s-1.6-2.2-1.9-3.5
			c-0.3-1.3-0.1-2.7,0.4-4c0.5-1.3,1.4-2.4,2.5-3.1c1.1-0.8,2.5-1.2,3.8-1.2c1.4,0,2.7,0.4,3.9,1.1c1.1,0.8,2,1.8,2.6,3.1
			c0.5,1.3,0.7,2.7,0.4,4c-0.2,0.9-0.5,1.7-1,2.5c-0.5,0.8-1.1,1.4-1.9,1.9c-0.8,0.5-1.6,0.9-2.5,1.1C41,29.5,40.1,29.5,39.2,29.3
			L39.2,29.3z"/>
	</g>
</g>
</svg>
