<svg width="32" height="32" viewBox="0 0 32 32" fill="none" xmlns="http://www.w3.org/2000/svg">
<path d="M15.9716 25.411C22.9887 25.411 28.6771 19.7226 28.6771 12.7055C28.6771 5.68845 22.9887 0 15.9716 0C8.95457 0 3.26611 5.68845 3.26611 12.7055C3.26611 19.7226 8.95457 25.411 15.9716 25.411Z" fill="#FFD15C"/>
<path d="M5.67878 20.1386L1.30713 27.7165L6.40949 27.4457L8.7276 32L12.7717 24.989C9.87406 24.2394 7.38587 22.4945 5.67878 20.1386ZM26.2898 20.1008C24.5953 22.463 22.1071 24.2142 19.2158 24.9764L23.2725 32L25.5906 27.4457L30.693 27.7165L26.2898 20.1008Z" fill="white" fill-opacity="0.5"/>
<path d="M15.9717 21.915C21.0579 21.915 25.1811 17.7917 25.1811 12.7055C25.1811 7.61927 21.0579 3.49606 15.9717 3.49606C10.8854 3.49606 6.76221 7.61927 6.76221 12.7055C6.76221 17.7917 10.8854 21.915 15.9717 21.915Z" fill="#F8B64C"/>
<path d="M22.2837 11.7102C22.5672 11.4331 22.4097 10.948 22.0192 10.8913L18.3845 10.3622C18.2271 10.337 18.0948 10.2425 18.0255 10.0976L16.4003 6.80315C16.2239 6.4441 15.7137 6.4441 15.5373 6.80315L13.9184 10.0976C13.8491 10.2362 13.7105 10.337 13.5593 10.3622L9.9247 10.8913C9.53414 10.948 9.37666 11.4331 9.66013 11.7102L12.2869 14.274C12.4003 14.3874 12.4507 14.5449 12.4255 14.6961L11.8082 18.3118C11.7389 18.7024 12.1546 19.0047 12.5074 18.8157L15.7578 17.1087C15.8963 17.0331 16.0664 17.0331 16.205 17.1087L19.4554 18.8157C19.8082 18.9984 20.2176 18.7024 20.1546 18.3118L19.531 14.6961C19.5058 14.5386 19.5562 14.3811 19.6696 14.274L22.2837 11.7102Z" fill="white"/>
</svg>
