<?xml version="1.0" encoding="utf-8"?>
<!-- Generator: Adobe Illustrator 23.0.1, SVG Export Plug-In . SVG Version: 6.00 Build 0)  -->
<svg version="1.1" id="Layer_1" xmlns="http://www.w3.org/2000/svg" xmlns:xlink="http://www.w3.org/1999/xlink" x="0px" y="0px"
	 viewBox="0 0 32 32" style="enable-background:new 0 0 32 32;" xml:space="preserve">
<style type="text/css">
	.st0{fill:none;stroke:#FFFFFF;stroke-width:1.5;stroke-linecap:round;stroke-linejoin:round;stroke-miterlimit:10;}
	.st1{fill:none;stroke:#FFFFFF;stroke-width:1.5;}
	.st2{fill:none;stroke:#FFFFFF;stroke-width:1.5;stroke-linecap:round;}
</style>
<path class="st0" d="M11.2,1L5.8,6.4"/>
<path class="st0" d="M20.8,1l5.4,5.4"/>
<path class="st1" d="M1,9.8c0-2.8,1.5-3,3.3-3h23.3c1.8,0,3.3,0.2,3.3,3c0,3.2-1.5,3-3.3,3H4.3C2.5,12.8,1,13,1,9.8z"/>
<path class="st2" d="M12.6,19v5.3"/>
<path class="st2" d="M19.5,19v5.3"/>
<path class="st2" d="M3.2,13l2.1,13c0.5,2.9,1.6,5,5.9,5h9c4.7,0,5.4-2,5.9-4.9L28.8,13"/>
</svg>
