<?xml version="1.0" encoding="utf-8"?>
<!-- Generator: Adobe Illustrator 23.0.1, SVG Export Plug-In . SVG Version: 6.00 Build 0)  -->
<svg version="1.1" id="Layer_1" xmlns="http://www.w3.org/2000/svg" xmlns:xlink="http://www.w3.org/1999/xlink" x="0px" y="0px"
	 viewBox="0 0 44 30" style="enable-background:new 0 0 44 30;" xml:space="preserve">
<style type="text/css">
	.st0{fill:url(#SVGID_1_);}
	.st1{fill:url(#SVGID_2_);}
</style>
<linearGradient id="SVGID_1_" gradientUnits="userSpaceOnUse" x1="296.7696" y1="-358.5352" x2="296.7696" y2="-331.4648" gradientTransform="matrix(1 0 0 -1 -276 -330)">
	<stop  offset="0" style="stop-color:#FD3A84"/>
	<stop  offset="1" style="stop-color:#FFA68D"/>
</linearGradient>
<path class="st0" d="M38.1,3.9V2.7c0-0.7-0.6-1.2-1.2-1.2H2.2C1.6,1.5,1,2,1,2.7v19.7c0,3.4,2.8,6.2,6.2,6.2h33.4V6.4L38.1,3.9z"/>
<linearGradient id="SVGID_2_" gradientUnits="userSpaceOnUse" x1="300.4609" y1="-358.5352" x2="300.4609" y2="-333.9258" gradientTransform="matrix(1 0 0 -1 -276 -330)">
	<stop  offset="0" style="stop-color:#FFC2CC"/>
	<stop  offset="1" style="stop-color:#FFF2F4"/>
</linearGradient>
<path class="st1" d="M17.1,21.2H7.2c-0.7,0-1.2,0.6-1.2,1.2c0,0.7,0.6,1.2,1.2,1.2h9.9c0.7,0,1.2-0.6,1.2-1.2
	C18.3,21.7,17.8,21.2,17.1,21.2z M17.1,16.2H7.2c-0.7,0-1.2,0.6-1.2,1.2c0,0.7,0.6,1.2,1.2,1.2h9.9c0.7,0,1.2-0.6,1.2-1.2
	C18.3,16.8,17.8,16.2,17.1,16.2z M31.9,6.4H22c-0.7,0-1.2,0.6-1.2,1.2v14.8c0,0.7,0.6,1.2,1.2,1.2h9.9c0.7,0,1.2-0.6,1.2-1.2V7.6
	C33.2,6.9,32.6,6.4,31.9,6.4z M40.5,3.9h-2.5v22.1c0,1.4,1.1,2.5,2.5,2.5s2.5-1.1,2.5-2.5V6.4C43,5,41.9,3.9,40.5,3.9z M17.1,6.4
	H7.2c-0.7,0-1.2,0.6-1.2,1.2v4.9c0,0.7,0.6,1.2,1.2,1.2h9.9c0.7,0,1.2-0.6,1.2-1.2V7.6C18.3,6.9,17.8,6.4,17.1,6.4z"/>
</svg>
