<?xml version="1.0" encoding="utf-8"?>
<!-- Generator: Adobe Illustrator 23.0.1, SVG Export Plug-In . SVG Version: 6.00 Build 0)  -->
<svg version="1.1" id="Layer_1" xmlns="http://www.w3.org/2000/svg" xmlns:xlink="http://www.w3.org/1999/xlink" x="0px" y="0px"
	 viewBox="0 0 200 200" style="enable-background:new 0 0 200 200;" xml:space="preserve">
<style type="text/css">
	.st0{fill:#2EC4B6;}
	.st1{fill:#2AB5A4;}
	.st2{fill:#2EA8E6;}
	.st3{fill:#176F93;}
	.st4{fill:#1794C6;}
	.st5{fill:#0D647F;}
	.st6{fill:#E6E9F2;}
	.st7{fill:#CFD7E6;}
</style>
<path class="st0" d="M100,45.29c-9.66,0-19.11,2.82-27.2,8.11S58.35,66.24,54.49,75.09c-3.86,8.86-5.06,18.65-3.44,28.17
	c1.62,9.53,5.98,18.37,12.56,25.45l-5.14,19.16c-0.3,1.13-0.26,2.33,0.11,3.44c0.38,1.11,1.07,2.08,2,2.79
	c0.93,0.71,2.05,1.13,3.22,1.21c1.17,0.08,2.33-0.2,3.35-0.78l20.09-11.6c6.83,1.81,13.96,2.15,20.93,0.99
	c6.97-1.16,13.61-3.8,19.47-7.73s10.83-9.07,14.55-15.08c3.72-6,6.12-12.73,7.04-19.74c0.92-7,0.33-14.12-1.73-20.88
	c-2.06-6.76-5.53-13-10.19-18.31c-4.66-5.31-10.4-9.56-16.83-12.48C114.04,46.8,107.06,45.29,100,45.29z"/>
<path class="st1" d="M100,45.29v99.3c13.17,0,25.8-5.23,35.11-14.54c9.31-9.31,14.54-21.94,14.54-35.11s-5.23-25.8-14.54-35.11
	C125.8,50.52,113.17,45.29,100,45.29z"/>
<path class="st2" d="M197.8,99.16c0.06-2.42,0.13-4.91,0.02-7.53c-0.33-7.28-3.46-14.15-8.74-19.17c-5.28-5.02-12.3-7.81-19.59-7.77
	C157.78,37.91,131.04,19.15,100,19.15S42.22,37.91,30.51,64.69c-7.29-0.04-14.31,2.75-19.59,7.77c-5.28,5.02-8.41,11.9-8.74,19.18
	c-0.11,2.6-0.04,5.1,0.02,7.52c0.07,2.57,0.14,5.22,0.01,8.19c-0.31,7.46,2.35,14.74,7.4,20.24c5.05,5.5,12.07,8.78,19.53,9.12
	c0.41,0.02,0.82,0.03,1.24,0.03c3.57,0,7.1-0.68,10.41-2c0.84-0.26,1.61-0.71,2.26-1.31c0.65-0.6,1.15-1.34,1.48-2.16
	c0.33-0.82,0.46-1.7,0.41-2.58c-0.06-0.88-0.31-1.74-0.75-2.5c-5.34-9.55-8.15-20.3-8.15-31.24c0-35.26,28.69-63.95,63.95-63.95
	c35.26,0,63.95,28.69,63.95,63.95c0.04,14.93-5.15,29.4-14.68,40.88c-9.53,11.49-22.79,19.27-37.47,21.98
	c-1.55-3.5-4.27-6.35-7.69-8.06c-3.42-1.71-7.34-2.16-11.06-1.29c-3.73,0.87-7.03,3.02-9.34,6.07c-2.31,3.05-3.48,6.81-3.32,10.63
	c0.17,3.82,1.67,7.47,4.23,10.3s6.05,4.68,9.84,5.23c3.79,0.54,7.65-0.26,10.91-2.26c3.26-2,5.72-5.08,6.96-8.7
	c10.43-1.72,20.38-5.61,29.22-11.4c8.84-5.79,16.37-13.37,22.12-22.24c1.96,0.43,3.96,0.64,5.96,0.65c0.41,0,0.82-0.01,1.24-0.03
	c7.46-0.34,14.48-3.61,19.53-9.12c5.05-5.5,7.71-12.78,7.4-20.24C197.66,104.38,197.73,101.73,197.8,99.16z"/>
<path class="st3" d="M197.8,99.16c0.06-2.42,0.13-4.91,0.02-7.53c-0.33-7.46-3.61-14.48-9.12-19.53c-5.5-5.05-12.78-7.7-20.24-7.39
	c-1.29,0.06-2.58,0.2-3.85,0.43c-0.85,0.15-1.66,0.49-2.37,0.98c-0.71,0.5-1.3,1.14-1.73,1.89c-0.43,0.75-0.69,1.58-0.77,2.44
	c-0.07,0.86,0.04,1.73,0.34,2.54c3.15,8.65,4.4,17.88,3.66,27.06c-0.74,9.18-3.45,18.09-7.94,26.13c-0.43,0.77-0.68,1.62-0.74,2.5
	c-0.06,0.88,0.08,1.76,0.41,2.58c0.33,0.82,0.83,1.55,1.48,2.15c0.65,0.6,1.42,1.05,2.26,1.31c3.31,1.32,6.85,2,10.42,2
	c0.41,0,0.82-0.01,1.24-0.03c7.46-0.34,14.48-3.61,19.52-9.12c5.05-5.5,7.71-12.78,7.4-20.24
	C197.66,104.38,197.73,101.73,197.8,99.16z"/>
<path class="st4" d="M160.14,73.18c-0.02-0.06-0.03-0.12-0.05-0.17c-0.3-0.81-0.41-1.68-0.34-2.54c0.07-0.86,0.34-1.7,0.77-2.44
	c0.43-0.75,1.02-1.39,1.73-1.89c0.71-0.5,1.51-0.83,2.37-0.98c1.27-0.23,2.56-0.38,3.85-0.43c0.35-0.02,0.69-0.02,1.03-0.02
	c-11.7-26.78-38.44-45.54-69.49-45.54v11.84C127.63,30.99,151.21,48.6,160.14,73.18z"/>
<path class="st3" d="M44.19,126.19c-4.49-8.04-7.2-16.95-7.94-26.13c-0.74-9.18,0.51-18.41,3.66-27.06c0.3-0.81,0.41-1.68,0.34-2.54
	c-0.07-0.86-0.34-1.7-0.77-2.44c-0.43-0.75-1.02-1.39-1.73-1.89c-0.71-0.5-1.51-0.83-2.37-0.98c-1.28-0.23-2.56-0.38-3.86-0.43
	c-7.46-0.31-14.74,2.35-20.24,7.4S2.51,84.18,2.18,91.64c-0.11,2.6-0.04,5.1,0.02,7.52c0.07,2.57,0.14,5.22,0.01,8.19
	c-0.31,7.46,2.35,14.74,7.4,20.24c5.05,5.5,12.07,8.78,19.53,9.12c0.41,0.02,0.82,0.03,1.24,0.03c3.57,0,7.1-0.68,10.41-2
	c0.84-0.26,1.61-0.71,2.26-1.31c0.65-0.6,1.15-1.34,1.48-2.15c0.33-0.82,0.46-1.7,0.41-2.58C44.88,127.81,44.62,126.96,44.19,126.19
	z"/>
<path class="st5" d="M36.05,94.94c-0.01-7.48,1.3-14.91,3.87-21.94c0.3-0.81,0.41-1.68,0.34-2.54c-0.07-0.86-0.34-1.7-0.77-2.44
	c-0.43-0.75-1.02-1.39-1.73-1.89c-0.71-0.5-1.51-0.83-2.37-0.98c-1.28-0.23-2.56-0.38-3.86-0.43c-1.6-0.07-3.21,0-4.8,0.21
	c-4.05,6.11-6.32,13.24-6.55,20.57c-0.12,3.35-0.05,6.56,0.02,9.66c0.08,3.3,0.16,6.7,0.01,10.52
	c-0.47,12.62,4.77,24.02,13.06,30.92c2.58-0.27,5.11-0.89,7.52-1.85c0.84-0.26,1.61-0.71,2.26-1.31c0.65-0.6,1.15-1.34,1.48-2.16
	c0.33-0.82,0.46-1.7,0.41-2.58c-0.06-0.88-0.31-1.74-0.74-2.5C38.85,116.64,36.05,105.88,36.05,94.94z M163.96,94.94
	c0.01-7.48-1.3-14.91-3.87-21.94c-0.3-0.81-0.41-1.68-0.34-2.54c0.07-0.86,0.34-1.7,0.77-2.44c0.43-0.75,1.02-1.39,1.73-1.89
	c0.71-0.5,1.51-0.83,2.37-0.98c1.28-0.23,2.56-0.38,3.86-0.43c1.6-0.07,3.21,0,4.8,0.21c4.05,6.11,6.32,13.24,6.55,20.57
	c0.12,3.35,0.05,6.56-0.02,9.66c-0.08,3.3-0.15,6.7-0.01,10.52c0.47,12.61-4.76,24.02-13.06,30.92c-2.58-0.27-5.11-0.89-7.52-1.85
	c-0.84-0.26-1.61-0.71-2.26-1.31c-0.65-0.6-1.15-1.34-1.48-2.16c-0.33-0.82-0.46-1.7-0.41-2.58c0.06-0.88,0.31-1.74,0.74-2.5
	C161.15,116.64,163.96,105.88,163.96,94.94z"/>
<path class="st6" d="M80.28,100.86c-1.57,0-3.08-0.62-4.19-1.73c-1.11-1.11-1.74-2.61-1.74-4.18c0-1.57,0.62-3.08,1.73-4.19
	c1.11-1.11,2.61-1.74,4.18-1.74h0.01c1.57,0,3.08,0.62,4.19,1.73c1.11,1.11,1.73,2.62,1.73,4.19c0,1.57-0.62,3.08-1.73,4.19
	C83.35,100.24,81.85,100.86,80.28,100.86z M100,100.86c-0.2,0-0.39-0.01-0.58-0.03c-0.19-0.02-0.38-0.05-0.57-0.09
	c-0.19-0.04-0.38-0.09-0.56-0.14c-0.18-0.06-0.37-0.12-0.54-0.2c-0.18-0.07-0.35-0.15-0.52-0.24c-0.17-0.09-0.34-0.19-0.5-0.3
	c-0.16-0.11-0.32-0.22-0.47-0.34c-0.15-0.12-0.3-0.26-0.43-0.39c-0.14-0.13-0.27-0.28-0.39-0.43c-0.12-0.15-0.24-0.3-0.34-0.47
	c-0.11-0.16-0.21-0.33-0.3-0.5c-0.09-0.17-0.17-0.35-0.24-0.52c-0.08-0.18-0.14-0.36-0.2-0.54c-0.06-0.19-0.1-0.38-0.14-0.56
	s-0.07-0.38-0.09-0.57c-0.02-0.19-0.03-0.39-0.03-0.58c0-0.19,0.01-0.39,0.03-0.58c0.02-0.19,0.05-0.39,0.09-0.58
	c0.04-0.19,0.09-0.38,0.14-0.56c0.06-0.19,0.12-0.37,0.2-0.55c0.07-0.18,0.16-0.35,0.24-0.52c0.09-0.17,0.19-0.34,0.3-0.5
	c0.11-0.16,0.22-0.32,0.34-0.47c0.12-0.15,0.26-0.3,0.39-0.43c0.13-0.14,0.28-0.26,0.43-0.39c0.15-0.12,0.3-0.24,0.47-0.34
	c0.16-0.11,0.33-0.21,0.5-0.3c0.17-0.09,0.35-0.17,0.52-0.25c0.18-0.07,0.36-0.14,0.54-0.19c0.37-0.11,0.75-0.19,1.14-0.23
	c0.39-0.04,0.78-0.04,1.16,0c0.19,0.02,0.39,0.05,0.58,0.09c0.19,0.04,0.38,0.08,0.56,0.14c0.19,0.06,0.37,0.12,0.55,0.19
	c0.18,0.08,0.35,0.16,0.52,0.25c0.17,0.09,0.34,0.19,0.5,0.3c0.16,0.11,0.32,0.23,0.47,0.34c0.15,0.13,0.3,0.26,0.43,0.39
	c0.13,0.13,0.27,0.28,0.39,0.43c0.12,0.15,0.24,0.31,0.34,0.47c0.11,0.16,0.21,0.33,0.3,0.5c0.09,0.17,0.17,0.34,0.25,0.52
	c0.07,0.18,0.14,0.36,0.2,0.55c0.06,0.19,0.1,0.37,0.14,0.56c0.04,0.19,0.07,0.38,0.09,0.58c0.02,0.19,0.03,0.39,0.03,0.58
	c0,0.19-0.01,0.39-0.03,0.58c-0.02,0.19-0.05,0.38-0.09,0.57c-0.04,0.19-0.09,0.38-0.14,0.56c-0.06,0.19-0.12,0.37-0.2,0.54
	c-0.08,0.18-0.16,0.36-0.25,0.52c-0.09,0.17-0.19,0.34-0.3,0.5c-0.11,0.16-0.23,0.32-0.34,0.47c-0.13,0.15-0.26,0.3-0.39,0.43
	c-0.14,0.14-0.28,0.27-0.43,0.39c-0.15,0.12-0.31,0.24-0.47,0.34c-0.16,0.11-0.33,0.21-0.5,0.3c-0.17,0.09-0.34,0.17-0.52,0.24
	c-0.18,0.08-0.36,0.14-0.55,0.2c-0.18,0.06-0.37,0.1-0.56,0.14c-0.19,0.04-0.38,0.07-0.58,0.09
	C100.39,100.85,100.2,100.86,100,100.86z"/>
<path class="st7" d="M105.81,93.79c-0.04-0.19-0.09-0.38-0.14-0.56c-0.06-0.18-0.12-0.37-0.2-0.55c-0.08-0.18-0.16-0.35-0.25-0.52
	c-0.09-0.17-0.19-0.34-0.3-0.5c-0.11-0.16-0.23-0.32-0.34-0.47c-0.13-0.15-0.26-0.3-0.39-0.43c-0.14-0.14-0.28-0.26-0.43-0.39
	c-0.15-0.12-0.31-0.24-0.47-0.34c-0.16-0.11-0.33-0.21-0.5-0.3c-0.17-0.09-0.34-0.17-0.52-0.25c-0.18-0.07-0.36-0.14-0.55-0.19
	c-0.18-0.06-0.37-0.11-0.56-0.14c-0.19-0.04-0.38-0.07-0.58-0.09c-0.19-0.02-0.39-0.03-0.58-0.03v11.84c0.19,0,0.39-0.01,0.58-0.03
	c0.19-0.02,0.39-0.05,0.58-0.09c0.19-0.04,0.38-0.09,0.56-0.14c0.19-0.06,0.37-0.12,0.55-0.2c0.18-0.07,0.35-0.15,0.52-0.24
	c0.17-0.09,0.34-0.19,0.5-0.3c0.16-0.11,0.32-0.22,0.47-0.34c0.15-0.12,0.3-0.26,0.43-0.39c0.13-0.13,0.27-0.28,0.39-0.43
	c0.12-0.15,0.24-0.3,0.34-0.47c0.11-0.16,0.21-0.33,0.3-0.5c0.09-0.17,0.17-0.35,0.25-0.52c0.07-0.18,0.14-0.36,0.2-0.54
	c0.06-0.18,0.1-0.38,0.14-0.56c0.04-0.19,0.07-0.38,0.09-0.57c0.02-0.19,0.03-0.39,0.03-0.58c0-0.19-0.01-0.39-0.03-0.58
	C105.88,94.17,105.84,93.98,105.81,93.79z M119.73,100.86c-1.57,0-3.08-0.62-4.19-1.73c-1.11-1.11-1.74-2.61-1.74-4.18
	c0-1.57,0.62-3.08,1.73-4.19c1.11-1.11,2.61-1.74,4.18-1.74h0.01c1.57,0,3.08,0.62,4.19,1.73c1.11,1.11,1.73,2.62,1.73,4.19
	c0,1.57-0.62,3.08-1.73,4.19C122.81,100.24,121.3,100.86,119.73,100.86z"/>
<path class="st3" d="M100.59,180.34c8.82-2.09,14.27-10.94,12.18-19.76c-2.09-8.82-10.94-14.27-19.76-12.18
	c-8.82,2.09-14.27,10.94-12.18,19.76C82.93,176.98,91.77,182.43,100.59,180.34z"/>
<path class="st5" d="M96.79,148.02v32.83c4.35,0,8.53-1.73,11.61-4.81c3.08-3.08,4.81-7.25,4.81-11.61c0-4.35-1.73-8.53-4.81-11.61
	C105.32,149.75,101.14,148.02,96.79,148.02z"/>
<path class="st4" d="M159.21,134.74c-0.78-0.24-1.5-0.64-2.11-1.18c-0.62-0.53-1.12-1.19-1.47-1.93c-0.35-0.74-0.55-1.54-0.57-2.35
	c-0.03-0.81,0.11-1.63,0.42-2.38c-4.6,8.01-10.89,14.93-18.43,20.27c-7.54,5.34-16.15,8.97-25.24,10.64
	c1.67,3.77,1.86,8.02,0.52,11.92c10.43-1.72,20.38-5.61,29.22-11.4c8.84-5.79,16.37-13.37,22.12-22.24
	C162.14,135.76,160.65,135.31,159.21,134.74z"/>
</svg>
