<?xml version="1.0" encoding="utf-8"?>
<!-- Generator: Adobe Illustrator 23.0.1, SVG Export Plug-In . SVG Version: 6.00 Build 0)  -->
<svg version="1.1" id="Layer_1" xmlns="http://www.w3.org/2000/svg" xmlns:xlink="http://www.w3.org/1999/xlink" x="0px" y="0px"
	 viewBox="0 0 40 40" style="enable-background:new 0 0 40 40;" xml:space="preserve">
<style type="text/css">
	.st0{fill:url(#SVGID_1_);}
	.st1{fill:url(#SVGID_2_);}
</style>
<linearGradient id="SVGID_1_" gradientUnits="userSpaceOnUse" x1="305.7296" y1="403.5586" x2="305.7296" y2="374.3967" gradientTransform="matrix(1 0 0 1 -286 -374)">
	<stop  offset="0" style="stop-color:#FFBEF9"/>
	<stop  offset="1" style="stop-color:#FFF1FF"/>
</linearGradient>
<path class="st0" d="M25.5,13.3c-1.3,0-2.3,1-2.3,2.3v5.8c0,1.9-1.6,3.5-3.5,3.5c-1.9,0-3.5-1.6-3.5-3.5v-5.8c0-1.3-1-2.3-2.3-2.3
	s-2.3,1-2.3,2.3v5.8c0,4.5,3.6,8.1,8.1,8.1s8.1-3.6,8.1-8.1v-5.8C27.9,14.4,26.9,13.3,25.5,13.3z M13.9,12.2c0.6,0,1.1-0.5,1.1-1.1
	V7.3c0-2.6,2.1-4.7,4.7-4.7s4.7,2.1,4.7,4.7v3.6c0,0.6,0.5,1.1,1.1,1.1s1.1-0.5,1.1-1.1V7.3c0-3.8-3.1-7-7-7s-7,3.1-7,7v3.6
	C12.8,11.7,13.3,12.2,13.9,12.2z"/>
<linearGradient id="SVGID_2_" gradientUnits="userSpaceOnUse" x1="305.778" y1="414" x2="305.778" y2="383.836" gradientTransform="matrix(1 0 0 1 -286 -374)">
	<stop  offset="0" style="stop-color:#A93AFF"/>
	<stop  offset="1" style="stop-color:#FF81FF"/>
</linearGradient>
<path class="st1" d="M36,38.8l-2.4-27.8c0-0.6-0.5-1-1.1-1H7c-0.6,0-1.1,0.4-1.1,1L3.5,38.8c0,0.3,0.1,0.6,0.3,0.8
	C4.1,39.9,4.4,40,4.7,40h30.2c0.3,0,0.6-0.1,0.8-0.4C35.9,39.4,36,39.1,36,38.8z M26.7,21.4c0,3.8-3.1,7-7,7s-7-3.1-7-7v-5.8
	c0-0.6,0.5-1.1,1.1-1.1s1.1,0.5,1.1,1.1v5.8c0,2.6,2.1,4.7,4.7,4.7s4.7-2.1,4.7-4.7v-5.8c0-0.6,0.5-1.1,1.1-1.1s1.1,0.5,1.1,1.1
	V21.4z"/>
</svg>
