<svg width="28" height="28" viewBox="0 0 28 28" fill="none" xmlns="http://www.w3.org/2000/svg">
<path fill-rule="evenodd" clip-rule="evenodd" d="M13.7493 0C17.4185 0.0663061 20.9151 1.57045 23.4865 4.18874C26.0579 6.80704 27.4986 10.3302 27.4986 14C27.4986 17.6698 26.0579 21.193 23.4865 23.8113C20.9151 26.4296 17.4185 27.9337 13.7493 28C10.0801 27.9337 6.58353 26.4296 4.01213 23.8113C1.44072 21.193 0 17.6698 0 14C0 10.3302 1.44072 6.80704 4.01213 4.18874C6.58353 1.57045 10.0801 0.0663061 13.7493 0ZM10.8419 18.5478L7.41329 15.1162C7.13265 14.8346 6.97506 14.4532 6.97506 14.0556C6.97506 13.658 7.13265 13.2767 7.41329 12.995C7.69537 12.7147 8.07692 12.5573 8.47463 12.5573C8.87234 12.5573 9.25389 12.7147 9.53596 12.995L11.9512 15.4133L17.9626 9.40191C18.2442 9.12126 18.6256 8.96368 19.0232 8.96368C19.4208 8.96368 19.8022 9.12126 20.0838 9.40191C20.364 9.68372 20.5214 10.065 20.5214 10.4625C20.5214 10.8599 20.364 11.2412 20.0838 11.523L13.0102 18.5966C12.8667 18.7394 12.6957 18.8518 12.5076 18.927C12.3195 19.0021 12.1182 19.0385 11.9157 19.034C11.7132 19.0294 11.5137 18.984 11.3292 18.9005C11.1446 18.8169 10.9789 18.697 10.8419 18.5478Z" fill="url(#paint0_linear_3628_3013)"/>
<defs>
<linearGradient id="paint0_linear_3628_3013" x1="13.7493" y1="28" x2="13.7493" y2="0" gradientUnits="userSpaceOnUse">
<stop stop-color="#00B59C"/>
<stop offset="1" stop-color="#9CFFAC"/>
</linearGradient>
</defs>
</svg>
