<?xml version="1.0" encoding="utf-8"?>
<!-- Generator: Adobe Illustrator 23.0.1, SVG Export Plug-In . SVG Version: 6.00 Build 0)  -->
<svg version="1.1" id="Layer_1" xmlns="http://www.w3.org/2000/svg" xmlns:xlink="http://www.w3.org/1999/xlink" x="0px" y="0px"
	 viewBox="0 0 42 42" style="enable-background:new 0 0 42 42;" xml:space="preserve">
<style type="text/css">
	.st0{fill:url(#SVGID_1_);}
</style>
<linearGradient id="SVGID_1_" gradientUnits="userSpaceOnUse" x1="277" y1="-272.0199" x2="277" y2="-241.9891" gradientTransform="matrix(1 0 0 -1 -256 -236)">
	<stop  offset="0" style="stop-color:#FD3A84"/>
	<stop  offset="1" style="stop-color:#FFA68D"/>
</linearGradient>
<path class="st0" d="M8.7,14.6c3.5-0.7,7-0.2,10.3,1.7c3.6,2,7.5,3.1,11.4,3.1c1.6,0,3.1-0.2,4.6-0.5c4.1-0.9,6.7-2.6,7-2.7
	l-4.6-6.9l0,0C37.2,9.4,30.7,13.4,23,9C18,6.2,12.4,5.3,7,6.5C2.9,7.3,0.3,9,0,9.2l4.6,6.9C4.6,16.1,6.2,15.1,8.7,14.6z M37.4,25.9
	c-0.3,0.2-6.7,4.2-14.4-0.1c-5-2.8-10.6-3.7-16-2.6c-4.1,0.9-6.7,2.6-7,2.7l4.6,6.9l0,0c0.3-0.2,6.7-4.2,14.4,0.1
	c3.6,2,7.5,3.1,11.4,3.1c1.6,0,3.1-0.2,4.6-0.5c4.1-0.9,6.7-2.6,7-2.7L37.4,25.9L37.4,25.9z"/>
</svg>
