<?xml version="1.0" encoding="utf-8"?>
<!-- Generator: Adobe Illustrator 23.0.1, SVG Export Plug-In . SVG Version: 6.00 Build 0)  -->
<svg version="1.1" id="Layer_1" xmlns="http://www.w3.org/2000/svg" xmlns:xlink="http://www.w3.org/1999/xlink" x="0px" y="0px"
	 viewBox="0 0 40 40" style="enable-background:new 0 0 40 40;" xml:space="preserve">
<style type="text/css">
	.st0{fill:url(#SVGID_1_);}
	.st1{fill:#EFEFF0;}
</style>
<linearGradient id="SVGID_1_" gradientUnits="userSpaceOnUse" x1="-232" y1="-373" x2="-232" y2="-335" gradientTransform="matrix(-1 0 0 -1 -212 -334)">
	<stop  offset="0" style="stop-color:#00B59C"/>
	<stop  offset="1" style="stop-color:#9CFFAC"/>
</linearGradient>
<path class="st0" d="M20,1L20,1C9.5,1,1,9.5,1,20l0,0c0,10.5,8.5,19,19,19l0,0c10.5,0,19-8.5,19-19l0,0C39,9.5,30.5,1,20,1z"/>
<path class="st1" d="M25.5,20.7H14.5c-0.4,0-0.7-0.3-0.7-0.7s0.3-0.7,0.7-0.7h11.1c0.4,0,0.7,0.3,0.7,0.7S25.9,20.7,25.5,20.7z"/>
<path class="st1" d="M20,26.2c-0.4,0-0.7-0.3-0.7-0.7V14.5c0-0.4,0.3-0.7,0.7-0.7s0.7,0.3,0.7,0.7v11.1C20.7,25.9,20.4,26.2,20,26.2
	z"/>
</svg>
