<?xml version="1.0" encoding="utf-8"?>
<!-- Generator: Adobe Illustrator 23.0.1, SVG Export Plug-In . SVG Version: 6.00 Build 0)  -->
<svg version="1.1" id="Layer_1" xmlns="http://www.w3.org/2000/svg" xmlns:xlink="http://www.w3.org/1999/xlink" x="0px" y="0px"
	 viewBox="0 0 40 40" style="enable-background:new 0 0 40 40;" xml:space="preserve">
<style type="text/css">
	.st0{fill-rule:evenodd;clip-rule:evenodd;fill:url(#SVGID_1_);}
</style>
<linearGradient id="SVGID_1_" gradientUnits="userSpaceOnUse" x1="306" y1="-373.5313" x2="306" y2="-334.5625" gradientTransform="matrix(1 0 0 -1 -286 -334)">
	<stop  offset="0" style="stop-color:#00B59C"/>
	<stop  offset="1" style="stop-color:#9CFFAC"/>
</linearGradient>
<path class="st0" d="M20,0.56c5.2,0.09,10.15,2.19,13.8,5.83c3.64,3.64,5.69,8.55,5.69,13.65S37.44,30.06,33.8,33.7
	s-8.6,5.74-13.8,5.83c-5.2-0.09-10.15-2.19-13.8-5.83c-3.64-3.64-5.69-8.55-5.69-13.65S2.56,10.04,6.2,6.39
	C9.85,2.75,14.8,0.65,20,0.56z M15.88,26.38l-4.86-4.78c-0.4-0.39-0.62-0.92-0.62-1.48s0.22-1.08,0.62-1.48
	c0.4-0.39,0.94-0.61,1.5-0.61c0.56,0,1.1,0.22,1.5,0.61l3.42,3.37l8.52-8.37c0.4-0.39,0.94-0.61,1.5-0.61c0.56,0,1.1,0.22,1.5,0.61
	c0.4,0.39,0.62,0.92,0.62,1.48c0,0.55-0.22,1.08-0.62,1.48l-10.02,9.84c-0.2,0.2-0.45,0.36-0.71,0.46c-0.27,0.1-0.55,0.16-0.84,0.15
	c-0.29-0.01-0.57-0.07-0.83-0.19C16.31,26.75,16.07,26.58,15.88,26.38z"/>
</svg>
