<?xml version="1.0" encoding="utf-8"?>
<!-- Generator: Adobe Illustrator 23.0.1, SVG Export Plug-In . SVG Version: 6.00 Build 0)  -->
<svg version="1.1" id="Layer_1" xmlns="http://www.w3.org/2000/svg" xmlns:xlink="http://www.w3.org/1999/xlink" x="0px" y="0px"
	 viewBox="0 0 60 60" style="enable-background:new 0 0 60 60;" xml:space="preserve">
<style type="text/css">
	.st0{clip-path:url(#SVGID_2_);}
	.st1{fill:url(#SVGID_3_);}
	.st2{fill:url(#SVGID_4_);}
	.st3{fill:url(#SVGID_5_);}
</style>
<g>
	<defs>
		<rect id="SVGID_1_" x="2" y="2" width="56" height="56"/>
	</defs>
	<clipPath id="SVGID_2_">
		<use xlink:href="#SVGID_1_"  style="overflow:visible;"/>
	</clipPath>
	<g class="st0">
		
			<linearGradient id="SVGID_3_" gradientUnits="userSpaceOnUse" x1="282.6995" y1="-357.3002" x2="329.3005" y2="-310.6991" gradientTransform="matrix(1 0 0 -1 -276 -304)">
			<stop  offset="0" style="stop-color:#FFD600"/>
			<stop  offset="0.5" style="stop-color:#FF0100"/>
			<stop  offset="1" style="stop-color:#D800B9"/>
		</linearGradient>
		<path class="st1" d="M57.8,18.5c-0.1-3-0.6-5-1.3-6.8c-0.7-1.9-1.8-3.6-3.2-5c-1.4-1.4-3.1-2.5-5-3.2c-1.8-0.7-3.8-1.2-6.8-1.3
			C38.6,2,37.6,2,30,2s-8.6,0-11.5,0.2c-3,0.1-5,0.6-6.8,1.3c-1.9,0.7-3.6,1.8-5,3.2c-1.4,1.4-2.5,3.1-3.2,5
			c-0.7,1.8-1.2,3.8-1.3,6.8C2,21.4,2,22.4,2,30c0,7.6,0,8.6,0.2,11.5c0.1,3,0.6,5,1.3,6.8c0.7,1.9,1.8,3.6,3.2,5
			c1.4,1.4,3.1,2.5,5,3.2c1.8,0.7,3.8,1.2,6.8,1.3C21.4,58,22.4,58,30,58s8.6,0,11.5-0.2c3-0.1,5-0.6,6.8-1.3c1.9-0.7,3.5-1.8,5-3.2
			c1.4-1.4,2.5-3.1,3.2-5c0.7-1.8,1.2-3.8,1.3-6.8C58,38.6,58,37.6,58,30C58,22.4,58,21.4,57.8,18.5z M52.8,41.3
			c-0.1,2.7-0.6,4.2-1,5.2c-0.5,1.2-1.2,2.3-2.1,3.2c-0.9,0.9-2,1.6-3.2,2.1c-1,0.4-2.5,0.8-5.2,1c-3,0.1-3.8,0.2-11.3,0.2
			c-7.5,0-8.4,0-11.3-0.2c-2.7-0.1-4.2-0.6-5.2-1c-1.2-0.4-2.3-1.2-3.2-2.1c-0.9-0.9-1.6-2-2.1-3.2c-0.4-1-0.8-2.5-1-5.2
			C7.1,38.4,7,37.5,7,30c0-7.5,0-8.4,0.2-11.3c0.1-2.7,0.6-4.2,1-5.2c0.4-1.2,1.2-2.3,2.1-3.2c0.9-0.9,2-1.6,3.2-2.1
			c1-0.4,2.5-0.8,5.2-1C21.6,7.1,22.5,7,30,7h0c7.5,0,8.4,0,11.3,0.2c2.7,0.1,4.2,0.6,5.2,1c1.2,0.4,2.3,1.2,3.2,2.1
			c0.9,0.9,1.6,2,2.1,3.2c0.4,1,0.8,2.5,1,5.2c0.1,3,0.2,3.8,0.2,11.3C53,37.5,52.9,38.4,52.8,41.3z"/>
		
			<linearGradient id="SVGID_4_" gradientUnits="userSpaceOnUse" x1="295.8328" y1="-344.1669" x2="316.1667" y2="-323.833" gradientTransform="matrix(1 0 0 -1 -276 -304)">
			<stop  offset="0" style="stop-color:#FF6400"/>
			<stop  offset="0.5" style="stop-color:#FF0100"/>
			<stop  offset="1" style="stop-color:#FD0056"/>
		</linearGradient>
		<path class="st2" d="M30,15.6c-7.9,0-14.4,6.4-14.4,14.4S22.1,44.4,30,44.4c7.9,0,14.4-6.4,14.4-14.4S37.9,15.6,30,15.6z M30,39.3
			c-5.2,0-9.3-4.2-9.3-9.3c0-5.2,4.2-9.3,9.3-9.3c5.2,0,9.3,4.2,9.3,9.3C39.3,35.2,35.2,39.3,30,39.3z"/>
		
			<linearGradient id="SVGID_5_" gradientUnits="userSpaceOnUse" x1="318.5701" y1="-321.4294" x2="323.3219" y2="-316.6775" gradientTransform="matrix(1 0 0 -1 -276 -304)">
			<stop  offset="0" style="stop-color:#F30072"/>
			<stop  offset="1" style="stop-color:#E50097"/>
		</linearGradient>
		<path class="st3" d="M48.3,15.1c0,1.9-1.5,3.4-3.4,3.4c-1.9,0-3.4-1.5-3.4-3.4c0-1.9,1.5-3.4,3.4-3.4
			C46.8,11.7,48.3,13.2,48.3,15.1L48.3,15.1z"/>
	</g>
</g>
</svg>
