<?xml version="1.0" encoding="utf-8"?>
<!-- Generator: Adobe Illustrator 23.0.1, SVG Export Plug-In . SVG Version: 6.00 Build 0)  -->
<svg version="1.1" id="Layer_1" xmlns="http://www.w3.org/2000/svg" xmlns:xlink="http://www.w3.org/1999/xlink" x="0px" y="0px"
	 viewBox="0 0 38 44" style="enable-background:new 0 0 38 44;" xml:space="preserve">
<style type="text/css">
	.st0{fill:url(#SVGID_1_);}
	.st1{fill:url(#SVGID_2_);}
</style>
<linearGradient id="SVGID_1_" gradientUnits="userSpaceOnUse" x1="275" y1="-328.5312" x2="275" y2="-299" gradientTransform="matrix(1 0 0 -1 -256 -298)">
	<stop  offset="0" style="stop-color:#FFBEF9"/>
	<stop  offset="1" style="stop-color:#FFF1FF"/>
</linearGradient>
<path class="st0" d="M32.4,20.8c-0.5-1.5-1.9-2.6-3.5-2.6c-1.7,0-3.1,1.1-3.5,2.6c-0.5,0.2-1,0.5-1.4,0.8c-0.7-0.6-1.5-1-2.5-1h-4.9
	c-1,0-1.8,0.4-2.5,1c-0.4-0.4-0.8-0.7-1.4-0.8c-0.5-1.5-1.9-2.6-3.5-2.6c-1.7,0-3.1,1.1-3.5,2.6C4.1,21.3,3,22.7,3,24.4
	s1.1,3.1,2.6,3.5c0.5,1.5,1.9,2.6,3.5,2.6c1.7,0,3.1-1.1,3.5-2.6c0.5-0.2,1-0.5,1.4-0.8c0.7,0.6,1.5,1,2.5,1h4.9c1,0,1.8-0.4,2.5-1
	c0.4,0.4,0.8,0.7,1.4,0.8c0.5,1.5,1.9,2.6,3.5,2.6c1.7,0,3.1-1.1,3.5-2.6c1.5-0.5,2.6-1.9,2.6-3.5S33.9,21.3,32.4,20.8z M14.1,10.8
	h2.5c0.7,0,1.2,0.6,1.2,1.2V17c0,0.7,0.6,1.2,1.2,1.2s1.2-0.6,1.2-1.2v-4.9c0-2-1.7-3.7-3.7-3.7h-2.5c-0.7,0-1.2-0.6-1.2-1.2V2.2
	c0-0.7-0.6-1.2-1.2-1.2c-0.7,0-1.2,0.6-1.2,1.2v4.9C10.4,9.2,12,10.8,14.1,10.8z"/>
<linearGradient id="SVGID_2_" gradientUnits="userSpaceOnUse" x1="275" y1="-341" x2="275" y2="-313.7656" gradientTransform="matrix(1 0 0 -1 -256 -298)">
	<stop  offset="0" style="stop-color:#A93AFF"/>
	<stop  offset="1" style="stop-color:#FF81FF"/>
</linearGradient>
<path class="st1" d="M28.8,15.8H9.2c-4.7,0-8.6,3.9-8.6,8.6v13.3c0,3,2.4,5.4,5.4,5.4c2.5,0,4.6-1.7,5.2-4.1l1.2-5
	c0.1-0.5,0.6-0.9,1.2-0.9h10.9c0.6,0,1.1,0.4,1.2,0.9l1.2,5c0.6,2.4,2.7,4.1,5.2,4.1c3,0,5.4-2.4,5.4-5.4V24.4
	C37.5,19.6,33.6,15.8,28.8,15.8z M11.6,25.6h-1.2v1.2c0,0.7-0.5,1.2-1.2,1.2c-0.7,0-1.2-0.5-1.2-1.2v-1.2H6.7
	c-0.7,0-1.2-0.5-1.2-1.2c0-0.7,0.5-1.2,1.2-1.2h1.2v-1.2c0-0.7,0.5-1.2,1.2-1.2c0.7,0,1.2,0.5,1.2,1.2v1.2h1.2
	c0.7,0,1.2,0.5,1.2,1.2C12.8,25.1,12.3,25.6,11.6,25.6z M21.5,25.6h-4.9c-0.7,0-1.2-0.5-1.2-1.2c0-0.7,0.5-1.2,1.2-1.2h4.9
	c0.7,0,1.2,0.5,1.2,1.2C22.7,25.1,22.2,25.6,21.5,25.6z M31.3,25.6h-1.2v1.2c0,0.7-0.5,1.2-1.2,1.2c-0.7,0-1.2-0.5-1.2-1.2v-1.2
	h-1.2c-0.7,0-1.2-0.5-1.2-1.2c0-0.7,0.5-1.2,1.2-1.2h1.2v-1.2c0-0.7,0.5-1.2,1.2-1.2c0.7,0,1.2,0.5,1.2,1.2v1.2h1.2
	c0.7,0,1.2,0.5,1.2,1.2C32.5,25.1,32,25.6,31.3,25.6z"/>
</svg>
