<svg width="20" height="20" viewBox="0 0 20 20" fill="none" xmlns="http://www.w3.org/2000/svg">
<path d="M0 9.99745C0 15.5126 4.48593 19.9997 10.0023 19.9997C15.3941 19.9985 19.8074 15.7134 19.9937 10.3542C19.9973 10.2672 19.9998 10.1728 20.001 10.0845C20.0082 9.38425 19.0478 9.18348 18.7721 9.82691C18.3504 10.81 17.6943 11.6748 16.861 12.3455C16.0277 13.0163 15.0427 13.4726 13.9922 13.6745C12.9417 13.8764 11.8578 13.8178 10.8352 13.5038C9.81261 13.1898 8.8825 12.63 8.12638 11.8733C7.51818 11.2652 7.03574 10.5432 6.70661 9.74862C6.37747 8.95402 6.2081 8.10236 6.20817 7.24229C6.20989 5.95999 6.58829 4.70644 7.29635 3.63736C8.00442 2.56827 9.01099 1.73076 10.191 1.22883C10.8332 0.954284 10.6349 -0.00481962 9.93578 1.82364e-05C9.8487 1.82364e-05 9.75436 0.00485211 9.66486 0.00727103C4.29605 0.182643 0.00120946 4.59719 0 9.99745Z" fill="url(#paint0_linear_4369_3740)"/>
<defs>
<linearGradient id="paint0_linear_4369_3740" x1="-0.0641019" y1="19.1857" x2="19.7687" y2="0.0822018" gradientUnits="userSpaceOnUse">
<stop stop-color="#0052FF"/>
<stop offset="1" stop-color="#31B6FF"/>
</linearGradient>
</defs>
</svg>
