<?xml version="1.0" encoding="utf-8"?>
<!-- Generator: Adobe Illustrator 23.0.1, SVG Export Plug-In . SVG Version: 6.00 Build 0)  -->
<svg version="1.1" id="Layer_1" xmlns="http://www.w3.org/2000/svg" xmlns:xlink="http://www.w3.org/1999/xlink" x="0px" y="0px"
	 viewBox="0 0 34 44" style="enable-background:new 0 0 34 44;" xml:space="preserve">
<style type="text/css">
	.st0{fill:url(#SVGID_1_);}
	.st1{fill:url(#SVGID_2_);}
</style>
<linearGradient id="SVGID_1_" gradientUnits="userSpaceOnUse" x1="273" y1="-343" x2="273" y2="-301" gradientTransform="matrix(1 0 0 -1 -256 -300)">
	<stop  offset="0" style="stop-color:#FD5900"/>
	<stop  offset="1" style="stop-color:#FFDE00"/>
</linearGradient>
<path class="st0" d="M27.2,15.1c-2.4-2.6-4.5-5-4.5-8.6c0-2,0.4-4,0.4-4c0-0.2,0-0.4,0-0.5c0-0.2-0.1-0.3-0.2-0.5
	c-0.1-0.1-0.3-0.3-0.4-0.3C22.3,1,22.1,1,21.9,1c-2.1,0-8,1.5-8,8.4c0,4.4-0.9,5.8-1.3,6.2c-0.2,0.2-0.5,0.3-0.7,0.3
	c-1.1,0-1.3-1.6-1.4-1.7c0-0.2-0.1-0.4-0.2-0.6c-0.1-0.2-0.3-0.3-0.5-0.4C9.5,13,9,13,8.7,13.3C3.9,16.2,1,21.3,1,26.9
	C1,35.7,8.2,43,17,43s16-7.3,16-16.1C33,21.3,29.9,18,27.2,15.1z"/>
<linearGradient id="SVGID_2_" gradientUnits="userSpaceOnUse" x1="273" y1="-335.5352" x2="273" y2="-320.7695" gradientTransform="matrix(1 0 0 -1 -256 -300)">
	<stop  offset="0" style="stop-color:#FFE59A"/>
	<stop  offset="1" style="stop-color:#FFFFD5"/>
</linearGradient>
<path class="st1" d="M15.8,24.5c0-2-1.7-3.7-3.7-3.7s-3.7,1.7-3.7,3.7c0,2,1.7,3.7,3.7,3.7S15.8,26.5,15.8,24.5z M10.8,24.5
	c0-0.7,0.6-1.2,1.2-1.2s1.2,0.6,1.2,1.2s-0.6,1.2-1.2,1.2S10.8,25.1,10.8,24.5z M21.9,28.2c-2,0-3.7,1.7-3.7,3.7
	c0,2,1.7,3.7,3.7,3.7s3.7-1.7,3.7-3.7C25.6,29.8,24,28.2,21.9,28.2z M21.9,33.1c-0.7,0-1.2-0.6-1.2-1.2c0-0.7,0.6-1.2,1.2-1.2
	s1.2,0.6,1.2,1.2C23.2,32.5,22.6,33.1,21.9,33.1z M22.7,21c-0.5-0.4-1.3-0.3-1.7,0.2l-9.8,12.3c-0.4,0.5-0.3,1.3,0.2,1.7
	c0.5,0.4,1.3,0.3,1.7-0.2l9.8-12.3C23.3,22.2,23.2,21.5,22.7,21z"/>
</svg>
