<svg width="62" height="52" viewBox="0 0 62 52" fill="none" xmlns="http://www.w3.org/2000/svg">
<path d="M51.0546 8.38907H45.8727C44.6394 3.69432 40.3605 0.221191 35.2856 0.221191H10.949C4.91175 0.221191 0 5.13294 0 11.1702V24.1342C0 30.1714 4.91175 35.0832 10.949 35.0832H11.7504V42.8608C11.7504 43.0092 11.7943 43.1542 11.8767 43.2775C11.9591 43.4008 12.0762 43.497 12.2133 43.5538C12.3503 43.6106 12.5011 43.6254 12.6466 43.5965C12.7921 43.5676 12.9257 43.4962 13.0306 43.3913L17.7971 38.6269C19.8415 41.4981 23.1776 43.2476 26.718 43.2476H40.6576L48.9692 51.5592C49.0741 51.6642 49.2077 51.7357 49.3532 51.7646C49.4987 51.7936 49.6495 51.7786 49.7865 51.7217C49.9235 51.6649 50.0407 51.5688 50.1231 51.4455C50.2055 51.3221 50.2495 51.1771 50.2495 51.0288V43.2476H51.0545C57.0898 43.2476 61.9999 38.3374 61.9999 32.3022V19.3382C61.9999 13.3009 57.0898 8.38919 51.0545 8.38919L51.0546 8.38907Z" fill="#FFD54F"/>
<path fill-rule="evenodd" clip-rule="evenodd" d="M32.6143 20.0756C33.9478 20.0756 35.0342 18.9856 35.0342 17.6521C35.0342 16.3186 33.9478 15.2286 32.6143 15.2286C31.2808 15.2286 30.1908 16.3186 30.1908 17.6521C30.1908 18.9856 31.2772 20.0756 32.6143 20.0756ZM23.1166 20.0756C24.4501 20.0756 25.5364 18.9856 25.5364 17.6521C25.5364 16.3186 24.4501 15.2286 23.1166 15.2286C21.7831 15.2286 20.6931 16.3186 20.6931 17.6521C20.6931 18.9856 21.7831 20.0756 23.1166 20.0756ZM13.6188 20.0756C14.9523 20.0756 16.0423 18.9856 16.0423 17.6521C16.0423 16.3186 14.9523 15.2286 13.6188 15.2286C12.2853 15.2286 11.1953 16.3186 11.1953 17.6521C11.1953 18.9856 12.2853 20.0756 13.6188 20.0756Z" fill="#6A676B"/>
<path d="M51.0543 8.38904H45.8724C46.1107 9.29686 46.2311 10.2316 46.2306 11.1702V24.1342C46.2306 30.1714 41.3206 35.0832 35.2854 35.0832H21.342L17.7969 38.6268C19.8412 41.4979 23.1774 43.2474 26.7177 43.2474H40.6574L48.969 51.559C49.0738 51.664 49.2074 51.7355 49.3529 51.7645C49.4984 51.7934 49.6493 51.7785 49.7862 51.7215C49.9233 51.6648 50.0404 51.5687 50.1228 51.4453C50.2052 51.322 50.2492 51.177 50.2493 51.0287V43.2474H51.0543C57.0895 43.2474 61.9996 38.3373 61.9996 32.302V19.338C61.9996 13.3008 57.0895 8.38904 51.0543 8.38904Z" fill="#A2E19F"/>
<path d="M11.75 41.2974V42.8608C11.75 43.0092 11.794 43.1542 11.8763 43.2775C11.9587 43.4008 12.0759 43.497 12.2129 43.5538C12.3499 43.6106 12.5007 43.6254 12.6462 43.5965C12.7917 43.5676 12.9253 43.4962 13.0303 43.3913L21.3419 35.0833H17.9669L11.75 41.2976V41.2974ZM35.2853 0.221191H31.9103C37.9455 0.221191 42.8555 5.13294 42.8555 11.1702V24.1342C42.8555 30.1714 37.9455 35.0832 31.9103 35.0832H35.2853C41.3205 35.0832 46.2305 30.1714 46.2305 24.1342V11.1702C46.2305 5.13294 41.3205 0.221191 35.2853 0.221191Z" fill="#FFC107"/>
<path d="M51.055 8.38904H47.68C53.7153 8.38904 58.6254 13.3008 58.6254 19.338V32.302C58.6254 38.3373 53.7153 43.2474 47.68 43.2474H46.875V49.4643L48.9697 51.559C49.0745 51.664 49.2082 51.7355 49.3537 51.7645C49.4992 51.7934 49.65 51.7785 49.787 51.7215C49.924 51.6648 50.0412 51.5687 50.1236 51.4453C50.206 51.322 50.25 51.177 50.25 51.0287V43.2474H51.055C57.0903 43.2474 62.0004 38.3373 62.0004 32.302V19.338C62.0004 13.3008 57.0903 8.38904 51.055 8.38904Z" fill="#8ED18B"/>
</svg>
