<?xml version="1.0" encoding="utf-8"?>
<!-- Generator: Adobe Illustrator 23.0.1, SVG Export Plug-In . SVG Version: 6.00 Build 0)  -->
<svg version="1.1" id="Layer_1" xmlns="http://www.w3.org/2000/svg" xmlns:xlink="http://www.w3.org/1999/xlink" x="0px" y="0px"
	 viewBox="0 0 60 60" style="enable-background:new 0 0 60 60;" xml:space="preserve">
<style type="text/css">
	.st0{fill:url(#SVGID_1_);}
	.st1{fill:url(#SVGID_2_);}
</style>
<linearGradient id="SVGID_1_" gradientUnits="userSpaceOnUse" x1="302.6014" y1="-361.1876" x2="302.6014" y2="-351.0677" gradientTransform="matrix(1 0 0 -1 -276 -304)">
	<stop  offset="0" style="stop-color:#ADDCFF"/>
	<stop  offset="0.503" style="stop-color:#EAF6FF"/>
	<stop  offset="1" style="stop-color:#EAF6FF"/>
</linearGradient>
<path class="st0" d="M50.5,47.3c-0.9,0-1.7,0.8-1.7,1.7v3c0,0.9-0.8,1.7-1.7,1.7H30.9L28,47.9c-0.6-1.2-2.5-1.2-3,0l-1.9,3.8
	l-1.9-3.8c-0.6-1.2-2.5-1.2-3,0l-1.9,3.8l-1.9-3.8c-0.6-1.2-2.5-1.2-3,0l-1.9,3.8l-1.9-3.8c-0.6-1.2-2.5-1.2-3,0l-3.4,6.8
	c-0.4,0.8-0.1,1.9,0.8,2.3c0.8,0.4,1.9,0.1,2.3-0.8l1.9-3.8L8,56.2c0.6,1.2,2.5,1.2,3,0l1.9-3.8l1.9,3.8c0.6,1.2,2.5,1.2,3,0
	l1.9-3.8l1.9,3.8c0.6,1.2,2.5,1.2,3,0l1.9-3.8l1.9,3.8c0.1,0.3,0.4,0.5,0.6,0.7c0.3,0.2,0.6,0.3,0.9,0.3h17.2c2.8,0,5.1-2.3,5.1-5.1
	v-3C52.2,48.1,51.4,47.3,50.5,47.3z"/>
<linearGradient id="SVGID_2_" gradientUnits="userSpaceOnUse" x1="310.7757" y1="-355.2621" x2="310.7757" y2="-306.8125" gradientTransform="matrix(1 0 0 -1 -276 -304)">
	<stop  offset="0" style="stop-color:#5558FF"/>
	<stop  offset="1" style="stop-color:#00C0FF"/>
</linearGradient>
<path class="st1" d="M59,41.1c-0.2-1.5-1-2.9-2.2-3.7l-8.7-5.8c-2-1.3-4.7-1.1-6.4,0.6l-2.3,2.3c-1.3-0.2-4.5-1-7.8-4.2
	c-3.3-3.3-4.1-6.4-4.2-7.8l2.3-2.3c1.7-1.7,2-4.4,0.6-6.4l-5.8-8.7c-0.9-1.3-2.2-2.1-3.7-2.2c-1.5-0.1-3,0.4-4.1,1.5L13,7.9
	c-1.7,1.7-2.6,4.1-2.5,6.4c0.3,4.6,2.3,13.9,12.6,24.3C33.5,49,42.8,51,47.5,51.2c2.3,0.1,4.7-0.7,6.4-2.5l3.6-3.6
	C58.6,44.1,59.1,42.6,59,41.1z"/>
</svg>
