<?xml version="1.0" encoding="utf-8"?>
<!-- Generator: Adobe Illustrator 23.0.1, SVG Export Plug-In . SVG Version: 6.00 Build 0)  -->
<svg version="1.1" id="Layer_1" xmlns="http://www.w3.org/2000/svg" xmlns:xlink="http://www.w3.org/1999/xlink" x="0px" y="0px"
	 viewBox="0 0 40 40" style="enable-background:new 0 0 40 40;" xml:space="preserve">
<style type="text/css">
	.st0{clip-path:url(#SVGID_2_);}
	.st1{fill:url(#SVGID_3_);}
	.st2{fill:url(#SVGID_4_);}
</style>
<g>
	<g>
		<defs>
			<rect id="SVGID_1_" width="40" height="40"/>
		</defs>
		<clipPath id="SVGID_2_">
			<use xlink:href="#SVGID_1_"  style="overflow:visible;"/>
		</clipPath>
		<g class="st0">
			
				<linearGradient id="SVGID_3_" gradientUnits="userSpaceOnUse" x1="306" y1="414" x2="306" y2="374" gradientTransform="matrix(1 0 0 1 -286 -374)">
				<stop  offset="0" style="stop-color:#5558FF"/>
				<stop  offset="1" style="stop-color:#00C0FF"/>
			</linearGradient>
			<path class="st1" d="M20,40c11.1,0,20-8.9,20-20S31.1,0,20,0S0,8.9,0,20S8.9,40,20,40z"/>
			
				<linearGradient id="SVGID_4_" gradientUnits="userSpaceOnUse" x1="306" y1="409.3125" x2="306" y2="381.102" gradientTransform="matrix(1 0 0 1 -286 -374)">
				<stop  offset="0" style="stop-color:#ADDCFF"/>
				<stop  offset="0.503" style="stop-color:#EAF6FF"/>
				<stop  offset="1" style="stop-color:#EAF6FF"/>
			</linearGradient>
			<path class="st2" d="M25.9,12.9c0-3.3-2.6-5.9-5.9-5.9s-5.9,2.6-5.9,5.9s2.6,5.9,5.9,5.9S25.9,16.2,25.9,12.9z M20,18.8
				c-5.8,0-10.5,4.7-10.5,10.5v1.1c0,0.3,0.1,0.6,0.4,0.8c2.8,2.5,6.4,4,10.1,4s7.3-1.4,10.1-4c0.1-0.1,0.2-0.2,0.3-0.4
				c0.1-0.1,0.1-0.3,0.1-0.5v-1.1C30.5,23.6,25.8,18.8,20,18.8z"/>
		</g>
	</g>
</g>
</svg>
