<?xml version="1.0" encoding="utf-8"?>
<!-- Generator: Adobe Illustrator 23.0.1, SVG Export Plug-In . SVG Version: 6.00 Build 0)  -->
<svg version="1.1" id="Layer_1" xmlns="http://www.w3.org/2000/svg" xmlns:xlink="http://www.w3.org/1999/xlink" x="0px" y="0px"
	 viewBox="0 0 64 64" style="enable-background:new 0 0 64 64;" xml:space="preserve">
<style type="text/css">
	.st0{opacity:0.4;fill:url(#SVGID_1_);enable-background:new    ;}
	.st1{fill:url(#SVGID_2_);}
</style>
<linearGradient id="SVGID_1_" gradientUnits="userSpaceOnUse" x1="306.2534" y1="-360" x2="306.2534" y2="-299.7634" gradientTransform="matrix(1 0 0 -1 -274 -298)">
	<stop  offset="0" style="stop-color:#A93AFF"/>
	<stop  offset="1" style="stop-color:#FF81FF"/>
</linearGradient>
<path class="st0" d="M29.2,2.2L12.7,8.4c-3.1,1.2-5.7,4.9-5.7,8.3V41c0,2.4,1.6,5.6,3.5,7.1L27,60.4c2.9,2.2,7.7,2.2,10.6,0L54,48
	c1.9-1.5,3.5-4.6,3.5-7.1V16.7c0-3.4-2.6-7.1-5.7-8.3L35.4,2.3C33.7,1.6,30.9,1.6,29.2,2.2z"/>
<linearGradient id="SVGID_2_" gradientUnits="userSpaceOnUse" x1="306.2839" y1="-336.6963" x2="306.2839" y2="-319.3253" gradientTransform="matrix(1 0 0 -1 -274 -298)">
	<stop  offset="0" style="stop-color:#A93AFF"/>
	<stop  offset="1" style="stop-color:#FF81FF"/>
</linearGradient>
<path class="st1" d="M28.3,38.7c-0.6,0-1.1-0.2-1.6-0.7l-4.8-4.8c-0.9-0.9-0.9-2.3,0-3.2c0.9-0.9,2.3-0.9,3.2,0l3.2,3.2L39.5,22
	c0.9-0.9,2.3-0.9,3.2,0c0.9,0.9,0.9,2.3,0,3.2L29.8,38C29.4,38.5,28.8,38.7,28.3,38.7z"/>
</svg>
