<svg width="32" height="32" viewBox="0 0 32 32" fill="none" xmlns="http://www.w3.org/2000/svg">
<g clip-path="url(#clip0_3634_3875)">
<path d="M18 5.686V1C18 0.734 17.894 0.48 17.708 0.292C17.522 0.104 17.266 0 17 0H3C2.448 0 2 0.448 2 1V5.686C2 8.09 2.936 10.35 4.636 12.05L6.586 14L4.636 15.95C2.936 17.652 2 19.91 2 22.314V27.002C2 27.268 2.106 27.522 2.292 27.71C2.478 27.898 2.734 28.002 3 28.002L17 28C17.552 28 18 27.552 18 27V22.312C18 19.908 17.064 17.648 15.364 15.948L13.414 14L15.364 12.048C17.064 10.35 18 8.09 18 5.686Z" fill="#ECEFF1"/>
<path d="M1 2C0.448 2 0 1.554 0 1C0 0.45 0.448 0 1 0H19C19.552 0 20 0.448 20 1C20 1.552 19.552 2 19 2H1ZM19 28H1C0.45 28 0 27.55 0 27C0 26.45 0.45 26 1 26H19C19.55 26 20 26.45 20 27C20 27.55 19.55 28 19 28Z" fill="#607D8B"/>
<path d="M4 4V5.686C4 7.556 4.728 9.312 6.05 10.636C6.05 10.636 10 13.736 10 14C10 13.736 13.95 10.634 13.95 10.634C15.272 9.312 16 7.554 16 5.686V4H4ZM4 26V24.314C4 22.444 4.728 20.688 6.05 19.364C6.05 19.366 10 16.264 10 16C10 16.264 13.95 19.366 13.95 19.366C15.272 20.688 16 22.446 16 24.316V26H4Z" fill="#B0BEC5"/>
<path d="M19 26H18V22.312C18 19.908 17.064 17.648 15.364 15.948L14.946 15.532C13.124 17.496 12 20.116 12 23C12 24.802 12.444 26.498 13.214 28H19C19.55 28 20 27.55 20 27C20 26.45 19.55 26 19 26Z" fill="#FAFAFA"/>
<path d="M23 32C27.9706 32 32 27.9706 32 23C32 18.0294 27.9706 14 23 14C18.0294 14 14 18.0294 14 23C14 27.9706 18.0294 32 23 32Z" fill="#2196F3"/>
<path d="M26 27C25.7347 27 25.4802 26.895 25.292 26.708L22.292 23.708C22.1052 23.5197 22.0003 23.2652 22 23V19C22 18.448 22.448 18 23 18C23.552 18 24 18.448 24 19V22.586L26.708 25.294C27.098 25.684 27.098 26.318 26.708 26.708C26.5198 26.895 26.2653 27 26 27Z" fill="#FAFAFA"/>
</g>
<defs>
<clipPath id="clip0_3634_3875">
<rect width="32" height="32" fill="white"/>
</clipPath>
</defs>
</svg>
