<?xml version="1.0" encoding="utf-8"?>
<!-- Generator: Adobe Illustrator 23.0.1, SVG Export Plug-In . SVG Version: 6.00 Build 0)  -->
<svg version="1.1" id="Layer_1" xmlns="http://www.w3.org/2000/svg" xmlns:xlink="http://www.w3.org/1999/xlink" x="0px" y="0px"
	 viewBox="0 0 80 80" style="enable-background:new 0 0 80 80;" xml:space="preserve">
<style type="text/css">
	.st0{fill:#011425;}
	.st1{opacity:0.4;fill:url(#SVGID_1_);enable-background:new    ;}
	.st2{fill:url(#SVGID_2_);}
	.st3{fill:url(#SVGID_3_);}
</style>
<path class="st0" d="M40,1L40,1c21.5,0,39,17.5,39,39l0,0c0,21.5-17.5,39-39,39l0,0C18.5,79,1,61.5,1,40l0,0C1,18.5,18.5,1,40,1z"/>
<linearGradient id="SVGID_1_" gradientUnits="userSpaceOnUse" x1="302.9871" y1="-338.7996" x2="302.9871" y2="-295.168" gradientTransform="matrix(1 0 0 -1 -266 -274)">
	<stop  offset="0" style="stop-color:#A93AFF"/>
	<stop  offset="1" style="stop-color:#FF81FF"/>
</linearGradient>
<path class="st1" d="M25.7,29l20.8-7c9.4-3.1,14.4,2,11.3,11.3l-7,20.8c-4.7,14-12.3,14-17,0l-2.1-6.2L25.7,46
	C11.7,41.4,11.7,33.7,25.7,29z"/>
<linearGradient id="SVGID_2_" gradientUnits="userSpaceOnUse" x1="307.6803" y1="-316.1449" x2="307.6803" y2="-307.3165" gradientTransform="matrix(1 0 0 -1 -266 -274)">
	<stop  offset="0" style="stop-color:#A93AFF"/>
	<stop  offset="1" style="stop-color:#FF81FF"/>
</linearGradient>
<path class="st2" d="M37.3,42.1l8.8-8.8L37.3,42.1z"/>
<linearGradient id="SVGID_3_" gradientUnits="userSpaceOnUse" x1="307.6689" y1="-317.8782" x2="307.6689" y2="-305.5889" gradientTransform="matrix(1 0 0 -1 -266 -274)">
	<stop  offset="0" style="stop-color:#A93AFF"/>
	<stop  offset="1" style="stop-color:#FF81FF"/>
</linearGradient>
<path class="st3" d="M37.3,43.9c-0.4,0-0.9-0.2-1.2-0.5c-0.7-0.7-0.7-1.8,0-2.4l8.8-8.8c0.7-0.7,1.8-0.7,2.4,0
	c0.7,0.7,0.7,1.8,0,2.4l-8.8,8.8C38.2,43.7,37.7,43.9,37.3,43.9z"/>
</svg>
