<?xml version="1.0" encoding="utf-8"?>
<!-- Generator: Adobe Illustrator 23.0.1, SVG Export Plug-In . SVG Version: 6.00 Build 0)  -->
<svg version="1.1" id="Layer_1" xmlns="http://www.w3.org/2000/svg" xmlns:xlink="http://www.w3.org/1999/xlink" x="0px" y="0px"
	 viewBox="0 0 32 32" style="enable-background:new 0 0 32 32;" xml:space="preserve">
<style type="text/css">
	.st0{clip-path:url(#SVGID_2_);}
	.st1{fill:url(#SVGID_3_);}
	.st2{fill:url(#SVGID_4_);}
</style>
<g>
	<defs>
		<rect id="SVGID_1_" width="32" height="32"/>
	</defs>
	<clipPath id="SVGID_2_">
		<use xlink:href="#SVGID_1_"  style="overflow:visible;"/>
	</clipPath>
	<g class="st0">
		
			<linearGradient id="SVGID_3_" gradientUnits="userSpaceOnUse" x1="297" y1="-369" x2="297" y2="-337" gradientTransform="matrix(1 0 0 -1 -281 -337)">
			<stop  offset="0" style="stop-color:#FFEDAD"/>
			<stop  offset="1" style="stop-color:#FFFFE5"/>
		</linearGradient>
		<path class="st1" d="M29.8,15H19.2C18,15,17,14,17,12.8V2.2C17,1,18,0,19.2,0h10.6C31,0,32,1,32,2.2v10.6C32,14,31,15,29.8,15z
			 M12.8,32H2.2C1,32,0,31,0,29.8V19.2C0,18,1,17,2.2,17h10.6c1.2,0,2.2,1,2.2,2.2v10.6C15,31,14,32,12.8,32z"/>
		
			<linearGradient id="SVGID_4_" gradientUnits="userSpaceOnUse" x1="297" y1="-369" x2="297" y2="-337" gradientTransform="matrix(1 0 0 -1 -281 -337)">
			<stop  offset="0" style="stop-color:#FD5900"/>
			<stop  offset="1" style="stop-color:#FFDE00"/>
		</linearGradient>
		<path class="st2" d="M12.8,15H2.2C1,15,0,14,0,12.8V2.2C0,1,1,0,2.2,0h10.6C14,0,15,1,15,2.2v10.6C15,14,14,15,12.8,15z M29.8,32
			H19.2C18,32,17,31,17,29.8V19.2c0-1.2,1-2.2,2.2-2.2h10.6c1.2,0,2.2,1,2.2,2.2v10.6C32,31,31,32,29.8,32z"/>
	</g>
</g>
</svg>
