<svg width="21" height="21" viewBox="0 0 21 21" fill="none" xmlns="http://www.w3.org/2000/svg">
<path d="M10.1606 0C9.99063 0 9.82759 0.0675377 9.70738 0.187752C9.58717 0.307965 9.51966 0.471011 9.51966 0.641019V3.44455C9.51966 3.61456 9.58717 3.77761 9.70738 3.89782C9.82759 4.01803 9.99063 4.08557 10.1606 4.08557C10.3304 4.08525 10.4932 4.01758 10.6132 3.8974C10.7331 3.77722 10.8005 3.61435 10.8005 3.44455V0.641019C10.8005 0.471011 10.7329 0.307965 10.6127 0.187752C10.4925 0.0675377 10.3306 0 10.1606 0ZM3.3574 2.79145C3.21326 2.80785 3.07902 2.87266 2.97649 2.97529C2.91688 3.03482 2.86953 3.10552 2.83727 3.18334C2.805 3.26117 2.7884 3.34459 2.7884 3.42883C2.7884 3.51308 2.805 3.5965 2.83727 3.67432C2.86953 3.75215 2.91688 3.82285 2.97649 3.88238L4.95759 5.86348C5.01713 5.92309 5.08779 5.97038 5.16562 6.00265C5.24344 6.03491 5.32689 6.05151 5.41114 6.05151C5.49539 6.05151 5.57877 6.03491 5.65659 6.00265C5.73442 5.97038 5.80516 5.92309 5.86469 5.86348C5.98434 5.74334 6.05145 5.5807 6.05145 5.41115C6.05145 5.24159 5.98434 5.07894 5.86469 4.95881L3.88115 2.97529C3.81322 2.90736 3.73085 2.85557 3.6402 2.82375C3.54956 2.79193 3.45289 2.78089 3.3574 2.79145ZM16.8187 2.79145C16.675 2.80811 16.5412 2.87291 16.439 2.97529L14.4555 4.95881C14.3358 5.07894 14.2686 5.24159 14.2686 5.41115C14.2686 5.5807 14.3358 5.74334 14.4555 5.86348C14.515 5.92309 14.5857 5.97038 14.6636 6.00265C14.7414 6.03491 14.8248 6.05151 14.909 6.05151C14.9933 6.05151 15.0767 6.03491 15.1545 6.00265C15.2324 5.97038 15.303 5.92309 15.3626 5.86348L17.3437 3.88117C17.4033 3.82164 17.4506 3.75094 17.4828 3.67311C17.5151 3.59529 17.5317 3.51187 17.5317 3.42762C17.5317 3.34337 17.5151 3.25996 17.4828 3.18213C17.4506 3.10431 17.4033 3.03361 17.3437 2.97407C17.2755 2.90658 17.1931 2.85524 17.1024 2.82384C17.0118 2.79244 16.9153 2.78178 16.82 2.79265L16.8187 2.79145ZM10.1606 4.77255C7.1914 4.77255 4.77253 7.19147 4.77253 10.1607C4.77253 13.1287 7.1914 15.5489 10.1606 15.5489C13.1287 15.5489 15.5488 13.1299 15.5488 10.1607C15.5488 7.19268 13.1287 4.77255 10.1606 4.77255ZM0.639796 9.5209C0.470207 9.52122 0.307642 9.58873 0.187724 9.70865C0.0678061 9.82857 0.000319679 9.99112 0 10.1607C0 10.3307 0.06751 10.4938 0.187724 10.614C0.307938 10.7342 0.47097 10.8017 0.640978 10.8017H3.44333C3.61333 10.8017 3.77637 10.7342 3.89658 10.614C4.01679 10.4938 4.0843 10.3307 4.0843 10.1607C4.0843 9.9907 4.01679 9.82765 3.89658 9.70744C3.77637 9.58723 3.61333 9.51969 3.44333 9.51969L0.639796 9.5209ZM16.8756 9.5209C16.706 9.52122 16.5435 9.58873 16.4236 9.70865C16.3037 9.82857 16.2361 9.99112 16.2358 10.1607C16.2358 10.3307 16.3034 10.4938 16.4236 10.614C16.5438 10.7342 16.7068 10.8017 16.8768 10.8017H19.6792C19.8492 10.8017 20.0122 10.7342 20.1324 10.614C20.2527 10.4938 20.3202 10.3307 20.3202 10.1607C20.3202 9.9907 20.2527 9.82765 20.1324 9.70744C20.0122 9.58723 19.8492 9.51969 19.6792 9.51969L16.8756 9.5209ZM5.33976 14.2705C5.19547 14.2872 5.06113 14.3524 4.95877 14.4555L2.97523 16.439C2.85522 16.5592 2.78781 16.7221 2.78781 16.892C2.78781 17.0618 2.85522 17.2247 2.97523 17.3449C3.03477 17.4045 3.10551 17.4518 3.18333 17.4841C3.26116 17.5164 3.34454 17.533 3.42878 17.533C3.51303 17.533 3.59648 17.5164 3.67431 17.4841C3.75213 17.4518 3.8228 17.4045 3.88233 17.3449L5.86587 15.3602C5.98552 15.2401 6.05271 15.0774 6.05271 14.9079C6.05271 14.7383 5.98552 14.5757 5.86587 14.4555C5.79778 14.387 5.71507 14.3348 5.62396 14.3028C5.53286 14.2707 5.43573 14.2597 5.33976 14.2705ZM14.8365 14.2705C14.6917 14.2869 14.557 14.3522 14.4543 14.4555C14.3346 14.5757 14.2675 14.7383 14.2675 14.9079C14.2675 15.0774 14.3346 15.2401 14.4543 15.3602L16.439 17.3437C16.5591 17.4634 16.7218 17.5305 16.8913 17.5305C17.0609 17.5305 17.2235 17.4634 17.3437 17.3437C17.4633 17.2236 17.5305 17.0609 17.5305 16.8914C17.5305 16.7218 17.4633 16.5592 17.3437 16.439L15.3614 14.4555C15.2934 14.3872 15.211 14.3351 15.1201 14.3031C15.0292 14.271 14.9322 14.2599 14.8365 14.2705ZM10.1606 16.2334C9.99063 16.2334 9.82759 16.301 9.70738 16.4212C9.58717 16.5414 9.51966 16.7044 9.51966 16.8744V19.6804C9.51966 19.8504 9.58717 20.0135 9.70738 20.1337C9.82759 20.2539 9.99063 20.3214 10.1606 20.3214C10.3304 20.3211 10.4932 20.2534 10.6132 20.1332C10.7331 20.0131 10.8005 19.8502 10.8005 19.6804V16.8744C10.8005 16.7044 10.7329 16.5414 10.6127 16.4212C10.4925 16.301 10.3306 16.2334 10.1606 16.2334Z" fill="url(#paint0_linear_4369_3737)"/>
<defs>
<linearGradient id="paint0_linear_4369_3737" x1="0.533371" y1="20.3202" x2="20.3662" y2="0.3653" gradientUnits="userSpaceOnUse">
<stop stop-color="#FF9D00"/>
<stop offset="1" stop-color="#FFE931"/>
</linearGradient>
</defs>
</svg>
