<?xml version="1.0" encoding="utf-8"?>
<!-- Generator: Adobe Illustrator 23.0.1, SVG Export Plug-In . SVG Version: 6.00 Build 0)  -->
<svg version="1.1" id="Layer_1" xmlns="http://www.w3.org/2000/svg" xmlns:xlink="http://www.w3.org/1999/xlink" x="0px" y="0px"
	 viewBox="0 0 40 40" style="enable-background:new 0 0 40 40;" xml:space="preserve">
<style type="text/css">
	.st0{fill:#A93AFF;fill-opacity:0.2;}
	.st1{fill:none;stroke:#A93AFF;stroke-width:1.5;stroke-linecap:round;stroke-linejoin:round;stroke-miterlimit:10;}
	
		.st2{opacity:0.4;fill:none;stroke:#A93AFF;stroke-width:1.5;stroke-linecap:round;stroke-linejoin:round;stroke-miterlimit:10;enable-background:new    ;}
	.st3{fill:none;stroke:#A93AFF;stroke-width:1.5;stroke-linecap:round;stroke-linejoin:round;}
	.st4{opacity:0.4;}
</style>
<path class="st0" d="M20,1L20,1c10.5,0,19,8.5,19,19l0,0c0,10.5-8.5,19-19,19l0,0C9.5,39,1,30.5,1,20l0,0C1,9.5,9.5,1,20,1z"/>
<path class="st1" d="M9.3,16.2h13.4"/>
<path class="st2" d="M13.6,24.8h2.1"/>
<path class="st2" d="M18.4,24.8h4.3"/>
<path class="st3" d="M30.7,22.2v2.2c0,3.8-1,4.7-4.8,4.7H14c-3.8,0-4.8-0.9-4.8-4.7v-8.8c0-3.8,1-4.7,4.8-4.7h8.6"/>
<g class="st4">
	<path class="st3" d="M28.6,17.3v-6.4l2.1,2.1"/>
	<path class="st3" d="M28.6,10.9L26.4,13"/>
</g>
</svg>
