<?xml version="1.0" encoding="utf-8"?>
<!-- Generator: Adobe Illustrator 23.0.1, SVG Export Plug-In . SVG Version: 6.00 Build 0)  -->
<svg version="1.1" id="Layer_1" xmlns="http://www.w3.org/2000/svg" xmlns:xlink="http://www.w3.org/1999/xlink" x="0px" y="0px"
	 viewBox="0 0 40 40" style="enable-background:new 0 0 40 40;" xml:space="preserve">
<style type="text/css">
	.st0{fill:url(#SVGID_1_);}
	.st1{fill:url(#SVGID_2_);}
	.st2{fill:url(#SVGID_3_);}
</style>
<linearGradient id="SVGID_1_" gradientUnits="userSpaceOnUse" x1="306.0174" y1="-356.704" x2="306.0174" y2="-342.4761" gradientTransform="matrix(1 0 0 -1 -286 -334)">
	<stop  offset="0" style="stop-color:#A93AFF"/>
	<stop  offset="1" style="stop-color:#FF81FF"/>
</linearGradient>
<path class="st0" d="M20.2,22.7c0,0-0.1,0-0.1,0c-0.1,0-0.1,0-0.2,0c-4-0.1-7-3.3-7-7.1c0-3.9,3.2-7.1,7.1-7.1s7.1,3.2,7.1,7.1
	C27.1,19.5,24.1,22.6,20.2,22.7C20.2,22.7,20.2,22.7,20.2,22.7z M20,11.1c-2.5,0-4.5,2-4.5,4.5c0,2.4,1.9,4.4,4.3,4.5
	c0.1,0,0.2,0,0.4,0c2.4-0.1,4.2-2.1,4.2-4.5C24.5,13.1,22.5,11.1,20,11.1z"/>
<linearGradient id="SVGID_2_" gradientUnits="userSpaceOnUse" x1="306.0022" y1="-372.9998" x2="306.0022" y2="-358.7631" gradientTransform="matrix(1 0 0 -1 -286 -334)">
	<stop  offset="0" style="stop-color:#A93AFF"/>
	<stop  offset="1" style="stop-color:#FF81FF"/>
</linearGradient>
<path class="st1" d="M20,39c-4.8,0-9.3-1.8-12.8-5c-0.3-0.3-0.5-0.7-0.4-1.1c0.2-2.1,1.5-4.1,3.7-5.5c5.3-3.5,13.8-3.5,19.1,0
	c2.2,1.5,3.5,3.4,3.7,5.5c0.1,0.4-0.1,0.8-0.4,1.1C29.3,37.2,24.8,39,20,39z M9.5,32.5c2.9,2.5,6.6,3.8,10.5,3.8s7.5-1.3,10.5-3.8
	c-0.3-1.1-1.2-2.1-2.4-3c-4.3-2.9-11.7-2.9-16.1,0C10.7,30.4,9.9,31.5,9.5,32.5z"/>
<linearGradient id="SVGID_3_" gradientUnits="userSpaceOnUse" x1="306" y1="-372.9999" x2="306" y2="-334.9999" gradientTransform="matrix(1 0 0 -1 -286 -334)">
	<stop  offset="0" style="stop-color:#A93AFF"/>
	<stop  offset="1" style="stop-color:#FF81FF"/>
</linearGradient>
<path class="st2" d="M20,39C9.5,39,1,30.5,1,20C1,9.5,9.5,1,20,1c10.5,0,19,8.5,19,19C39,30.5,30.5,39,20,39z M20,3.7
	C11,3.7,3.7,11,3.7,20S11,36.3,20,36.3S36.3,29,36.3,20S29,3.7,20,3.7z"/>
</svg>
