<svg width="90" height="90" viewBox="0 0 90 90" fill="none" xmlns="http://www.w3.org/2000/svg">
<path d="M54.375 33.875C52.273 33.875 50.625 35.523 50.625 37.625V47C50.625 50.1017 48.1017 52.625 45 52.625C41.8983 52.625 39.375 50.1017 39.375 47V37.625C39.375 35.523 37.727 33.875 35.625 33.875C33.523 33.875 31.875 35.523 31.875 37.625V47C31.875 54.2364 37.7636 60.125 45 60.125C52.2364 60.125 58.125 54.2364 58.125 47V37.625C58.125 35.523 56.477 33.875 54.375 33.875ZM35.625 32C36.6614 32 37.5 31.1614 37.5 30.125V24.25C37.5 20.1136 40.8655 16.75 45 16.75C49.1345 16.75 52.5 20.1136 52.5 24.25V30.125C52.5 31.1614 53.3386 32 54.375 32C55.4114 32 56.25 31.1614 56.25 30.125V24.25C56.25 18.0464 51.2036 13 45 13C38.7964 13 33.75 18.0464 33.75 24.25V30.125C33.75 31.1614 34.5886 32 35.625 32Z" fill="url(#paint0_linear_3891_2989)"/>
<path d="M71.2499 74.9749L67.4999 29.9749C67.4247 29 66.5998 28.25 65.6249 28.25H24.3749C23.3999 28.25 22.575 29 22.4999 29.9749L18.7499 74.9749C18.7124 75.4999 18.8997 76.025 19.2374 76.3999C19.6122 76.775 20.0999 77 20.6249 77H69.3749C69.8999 77 70.3875 76.775 70.7624 76.3999C71.1 76.025 71.2873 75.4999 71.2499 74.9749ZM56.2499 47C56.2499 53.1874 51.1875 58.25 44.9999 58.25C38.8122 58.25 33.7499 53.1874 33.7499 47V37.625C33.7499 36.5749 34.5747 35.75 35.6249 35.75C36.675 35.75 37.4999 36.5749 37.4999 37.625V47C37.4999 51.1249 40.875 54.5 44.9999 54.5C49.1247 54.5 52.4999 51.1249 52.4999 47V37.625C52.4999 36.5749 53.3247 35.75 54.3749 35.75C55.425 35.75 56.2499 36.5749 56.2499 37.625V47Z" fill="url(#paint1_linear_3891_2989)"/>
<path d="M74.0003 39.3333C81.3641 39.3333 87.3337 33.3638 87.3337 26C87.3337 18.6362 81.3641 12.6667 74.0003 12.6667C66.6365 12.6667 60.667 18.6362 60.667 26C60.667 33.3638 66.6365 39.3333 74.0003 39.3333Z" fill="#E6E6E6"/>
<path d="M78.9473 29.0533C79.1334 29.2395 79.2599 29.4768 79.3108 29.7351C79.3618 29.9933 79.3348 30.2609 79.2334 30.5038C79.1319 30.7467 78.9606 30.954 78.7411 31.0993C78.5216 31.2446 78.2639 31.3214 78.0007 31.32C77.654 31.32 77.3207 31.1867 77.054 30.9333L74.0007 27.88L70.9473 30.9333C70.6807 31.2 70.3473 31.32 70.0007 31.32C69.654 31.32 69.3207 31.1867 69.054 30.9333C68.9304 30.81 68.8323 30.6635 68.7654 30.5022C68.6985 30.3409 68.6641 30.168 68.6641 29.9933C68.6641 29.8187 68.6985 29.6458 68.7654 29.4845C68.8323 29.3232 68.9304 29.1767 69.054 29.0533L72.1073 26L69.054 22.9467C68.9305 22.8232 68.8326 22.6767 68.7658 22.5154C68.699 22.3541 68.6646 22.1812 68.6646 22.0067C68.6646 21.8321 68.699 21.6592 68.7658 21.4979C68.8326 21.3367 68.9305 21.1901 69.054 21.0667C69.1774 20.9432 69.324 20.8453 69.4853 20.7785C69.6465 20.7117 69.8194 20.6773 69.994 20.6773C70.1686 20.6773 70.3414 20.7117 70.5027 20.7785C70.664 20.8453 70.8105 20.9432 70.934 21.0667L73.9873 24.12L77.0407 21.0667C77.1641 20.9432 77.3106 20.8453 77.4719 20.7785C77.6332 20.7117 77.8061 20.6773 77.9807 20.6773C78.1552 20.6773 78.3281 20.7117 78.4894 20.7785C78.6507 20.8453 78.7972 20.9432 78.9207 21.0667C79.0441 21.1901 79.142 21.3367 79.2088 21.4979C79.2756 21.6592 79.31 21.8321 79.31 22.0067C79.31 22.1812 79.2756 22.3541 79.2088 22.5154C79.142 22.6767 79.0441 22.8232 78.9207 22.9467L75.8673 26L78.9207 29.0533H78.9473Z" fill="black"/>
<defs>
<linearGradient id="paint0_linear_3891_2989" x1="45" y1="60.125" x2="45" y2="13" gradientUnits="userSpaceOnUse">
<stop stop-color="#FFBEF9"/>
<stop offset="1" stop-color="#FFF1FF"/>
</linearGradient>
<linearGradient id="paint1_linear_3891_2989" x1="26.5268" y1="82.8518" x2="65.3078" y2="31.2812" gradientUnits="userSpaceOnUse">
<stop stop-color="#FF163E"/>
<stop offset="1" stop-color="#FF163E"/>
</linearGradient>
</defs>
</svg>
