<svg width="24" height="24" viewBox="0 0 24 24" fill="none" xmlns="http://www.w3.org/2000/svg">
<path d="M11.9997 5.33337C13.4725 5.33337 14.6664 4.13946 14.6664 2.66669C14.6664 1.19392 13.4725 0 11.9997 0C10.5269 0 9.33301 1.19392 9.33301 2.66669C9.33301 4.13946 10.5269 5.33337 11.9997 5.33337Z" fill="url(#paint0_linear_3628_3153)"/>
<path d="M11.9997 14.6666C13.4725 14.6666 14.6664 13.4727 14.6664 11.9999C14.6664 10.5272 13.4725 9.33325 11.9997 9.33325C10.5269 9.33325 9.33301 10.5272 9.33301 11.9999C9.33301 13.4727 10.5269 14.6666 11.9997 14.6666Z" fill="url(#paint1_linear_3628_3153)"/>
<path d="M11.9997 24C13.4725 24 14.6664 22.8061 14.6664 21.3333C14.6664 19.8605 13.4725 18.6666 11.9997 18.6666C10.5269 18.6666 9.33301 19.8605 9.33301 21.3333C9.33301 22.8061 10.5269 24 11.9997 24Z" fill="url(#paint2_linear_3628_3153)"/>
<defs>
<linearGradient id="paint0_linear_3628_3153" x1="11.9997" y1="5.33337" x2="11.9997" y2="0" gradientUnits="userSpaceOnUse">
<stop stop-color="#FFE59A"/>
<stop offset="1" stop-color="#FFFFD5"/>
</linearGradient>
<linearGradient id="paint1_linear_3628_3153" x1="11.9997" y1="14.6666" x2="11.9997" y2="9.33325" gradientUnits="userSpaceOnUse">
<stop stop-color="#FFE59A"/>
<stop offset="1" stop-color="#FFFFD5"/>
</linearGradient>
<linearGradient id="paint2_linear_3628_3153" x1="11.9997" y1="24" x2="11.9997" y2="18.6666" gradientUnits="userSpaceOnUse">
<stop stop-color="#FFE59A"/>
<stop offset="1" stop-color="#FFFFD5"/>
</linearGradient>
</defs>
</svg>
