<?xml version="1.0" encoding="utf-8"?>
<!-- Generator: Adobe Illustrator 23.0.1, SVG Export Plug-In . SVG Version: 6.00 Build 0)  -->
<svg version="1.1" id="Layer_1" xmlns="http://www.w3.org/2000/svg" xmlns:xlink="http://www.w3.org/1999/xlink" x="0px" y="0px"
	 viewBox="0 0 40 40" style="enable-background:new 0 0 40 40;" xml:space="preserve">
<style type="text/css">
	.st0{fill:none;stroke:#EFEFF0;stroke-width:1.5;stroke-linecap:round;stroke-linejoin:round;}
	
		.st1{opacity:0.4;fill:none;stroke:#EFEFF0;stroke-width:1.5;stroke-linecap:round;stroke-linejoin:round;enable-background:new    ;}
	.st2{opacity:0.4;fill:none;stroke:#EFEFF0;stroke-width:2;stroke-linecap:round;stroke-linejoin:round;enable-background:new    ;}
</style>
<path class="st0" d="M34.3,20.9c0-2.6,2.1-4.7,4.7-4.7v-1.9c0-7.6-1.9-9.5-9.5-9.5h-19C2.9,4.8,1,6.7,1,14.3v0.9
	c2.6,0,4.7,2.1,4.7,4.7S3.6,24.7,1,24.7v0.9c0,7.6,1.9,9.5,9.5,9.5h19c7.6,0,9.5-1.9,9.5-9.5C36.4,25.7,34.3,23.6,34.3,20.9z"/>
<path class="st1" d="M14.3,25.2l11.4-11.4"/>
<path class="st2" d="M25.7,25.2L25.7,25.2"/>
<path class="st2" d="M14.3,14.8L14.3,14.8"/>
</svg>
