<?xml version="1.0" encoding="utf-8"?>
<!-- Generator: Adobe Illustrator 23.0.1, SVG Export Plug-In . SVG Version: 6.00 Build 0)  -->
<svg version="1.1" id="Layer_1" xmlns="http://www.w3.org/2000/svg" xmlns:xlink="http://www.w3.org/1999/xlink" x="0px" y="0px"
	 viewBox="0 0 40 40" style="enable-background:new 0 0 40 40;" xml:space="preserve">
<style type="text/css">
	
		.st0{opacity:0.4;fill:none;stroke:#EFEFF0;stroke-width:1.5;stroke-linecap:round;stroke-linejoin:round;enable-background:new    ;}
	.st1{fill:none;stroke:#EFEFF0;stroke-width:1.5;stroke-linecap:round;stroke-linejoin:round;}
	.st2{opacity:0.4;fill:none;stroke:#EFEFF0;stroke-width:2;stroke-linecap:round;stroke-linejoin:round;enable-background:new    ;}
</style>
<path class="st0" d="M18.1,34.3h-6.7c-1.2,0-2.2,0-3.2-0.2c-5-0.6-6.3-2.9-6.3-9.3v-9.5c0-6.4,1.3-8.8,6.3-9.3
	c0.9-0.1,2-0.2,3.2-0.2H18"/>
<path class="st1" d="M25.7,5.8h2.8c1.2,0,2.2,0,3.2,0.2c5,0.6,6.3,2.9,6.3,9.3v9.5c0,6.4-1.3,8.8-6.3,9.3c-0.9,0.1-2,0.2-3.2,0.2
	h-2.8"/>
<path class="st1" d="M25.7,1v38"/>
<path class="st2" d="M18.3,20L18.3,20"/>
<path class="st2" d="M10.7,20L10.7,20"/>
</svg>
