<?xml version="1.0" encoding="utf-8"?>
<!-- Generator: Adobe Illustrator 23.0.1, SVG Export Plug-In . SVG Version: 6.00 Build 0)  -->
<svg version="1.1" id="Layer_1" xmlns="http://www.w3.org/2000/svg" xmlns:xlink="http://www.w3.org/1999/xlink" x="0px" y="0px"
	 viewBox="0 0 40 40" style="enable-background:new 0 0 40 40;" xml:space="preserve">
<style type="text/css">
	
		.st0{opacity:0.4;fill:none;stroke:#EFEFF0;stroke-width:1.5;stroke-linecap:round;stroke-linejoin:round;enable-background:new    ;}
	
		.st1{opacity:0.34;fill:none;stroke:#EFEFF0;stroke-width:1.5;stroke-linecap:round;stroke-linejoin:round;enable-background:new    ;}
	.st2{fill:none;stroke:#EFEFF0;stroke-width:1.5;stroke-linecap:round;stroke-linejoin:round;}
</style>
<path class="st0" d="M20.2,21.5c-0.1,0-0.3,0-0.5,0c-3.3-0.1-6-2.9-6-6.2c0-3.4,2.8-6.2,6.2-6.2c3.4,0,6.2,2.8,6.2,6.2
	C26.2,18.6,23.6,21.4,20.2,21.5z"/>
<path class="st1" d="M32.8,34c-3.4,3.1-7.9,5-12.8,5s-9.4-1.9-12.8-5c0.2-1.8,1.3-3.5,3.4-4.9c5.2-3.5,13.7-3.5,18.9,0
	C31.5,30.5,32.6,32.2,32.8,34z"/>
<path class="st2" d="M20,39c10.5,0,19-8.5,19-19S30.5,1,20,1S1,9.5,1,20S9.5,39,20,39z"/>
</svg>
