<?xml version="1.0" encoding="utf-8"?>
<!-- Generator: Adobe Illustrator 23.0.1, SVG Export Plug-In . SVG Version: 6.00 Build 0)  -->
<svg version="1.1" id="Layer_1" xmlns="http://www.w3.org/2000/svg" xmlns:xlink="http://www.w3.org/1999/xlink" x="0px" y="0px"
	 viewBox="0 0 40 40" style="enable-background:new 0 0 40 40;" xml:space="preserve">
<style type="text/css">
	
		.st0{opacity:0.4;fill:none;stroke:#EFEFF0;stroke-width:1.5;stroke-linecap:round;stroke-linejoin:round;enable-background:new    ;}
	.st1{fill:none;stroke:#EFEFF0;stroke-width:1.5;stroke-linecap:round;stroke-linejoin:round;}
</style>
<path class="st0" d="M21.9,18.4H10.8"/>
<path class="st0" d="M1.5,18.4V9.8C1.5,6,4.6,3,8.4,3h10.4c3.8,0,6.9,2.4,6.9,6.2"/>
<path class="st1" d="M30.3,20.4c-0.9,0.9-1.4,2.3-1,3.7c0.5,1.7,2.2,2.8,4,2.8H35v2.7c0,4.1-3.3,7.4-7.4,7.4H8.9
	c-4.1,0-7.4-3.3-7.4-7.4v-13c0-4.1,3.3-7.4,7.4-7.4h18.6c4.1,0,7.4,3.3,7.4,7.4v2.7h-2C31.9,19.3,31,19.7,30.3,20.4z"/>
<path class="st1" d="M38.7,21.1V25c0,1-0.9,1.9-1.9,1.9h-3.6c-2,0-3.8-1.5-4-3.5c-0.1-1.2,0.3-2.3,1.1-3c0.7-0.7,1.6-1.1,2.7-1.1
	h3.8C37.8,19.3,38.7,20.1,38.7,21.1z"/>
</svg>
